#N canvas -8 -8 1920 1010 10;
#X obj 110 233 receive start-stop;
#X obj 110 273 trigger float bang;
#X obj 260 273 loadbang;
#X msg 260 313 250;
#X obj 293 364 send period;
#X obj 337 315 receive zero;
#X obj 112 472 send trig;
#X obj 201 472 send scoretime;
#X obj 313 472 send drumtime;
#X obj 419 472 send synthtime;
#N canvas 978 139 762 564 masterclock 0;
#X obj 70 61 inlet start-stop;
#X obj 207 61 loadbang;
#X obj 403 64 inlet zero;
#X obj 207 127 metro 250;
#X obj 291 94 inlet period;
#X obj 403 99 trigger bang;
#X msg 403 134 0;
#X msg 207 94 1;
#X obj 207 177 trigger bang bang;
#X obj 207 296 outlet trig;
#X obj 346 214 float 0;
#X obj 346 257 trigger float float;
#X obj 485 257 trigger float float;
#X obj 485 214 + 1;
#X obj 346 297 outlet scoretime;
#X obj 485 295 outlet drumtime;
#X obj 596 295 / 2;
#X obj 596 333 outlet synthtime;
#X connect 0 0 3 0;
#X connect 1 0 7 0;
#X connect 2 0 5 0;
#X connect 3 0 8 0;
#X connect 4 0 3 1;
#X connect 5 0 6 0;
#X connect 6 0 10 1;
#X connect 7 0 3 0;
#X connect 8 0 9 0;
#X connect 8 1 10 0;
#X connect 10 0 11 0;
#X connect 11 0 14 0;
#X connect 11 1 13 0;
#X connect 12 0 15 0;
#X connect 12 1 16 0;
#X connect 13 0 10 1;
#X connect 13 0 12 0;
#X connect 16 0 17 0;
#X restore 202 414 pd masterclock;
#X text 211 205 Master Clock;
#X text 755 203 Master Mixer;
#X obj 671 239 receive mast;
#X obj 792 239 receive mastmute;
#X obj 792 272 trigger bang float;
#X obj 792 305 *;
#N canvas 1090 191 731 601 mixer-output 0;
#X obj 110 63 catch~ left;
#X obj 217 63 catch~ right;
#X obj 350 22 inlet volume;
#X obj 110 112 *~;
#X obj 217 112 *~;
#X obj 110 161 dac~ 1 2;
#X msg 350 51 \$1 20;
#X obj 350 80 line~;
#X connect 0 0 3 0;
#X connect 1 0 4 0;
#X connect 2 0 6 0;
#X connect 3 0 5 0;
#X connect 4 0 5 1;
#X connect 6 0 7 0;
#X connect 7 0 3 1;
#X connect 7 0 4 1;
#X restore 792 340 pd mixer-output;
#X text 721 384 Mixer Channel;
#N canvas 1149 478 656 446 mixer-channel 0;
#X obj 80 42 inlet~ left;
#X obj 175 42 inlet~ right;
#X obj 293 66 inlet volume;
#X obj 411 138 inlet pan;
#X msg 293 97 \$1 20;
#X obj 293 128 line~;
#X obj 113 175 *~;
#X obj 202 172 *~;
#X obj 164 238 - 30;
#X obj 316 238 + 30;
#N canvas 1048 408 643 472 panner 0;
#X obj 61 54 inlet~ audio;
#X obj 282 56 inlet pan;
#X obj 282 89 + 90;
#X obj 282 122 / 180;
#X obj 282 166 trigger float float;
#X obj 393 209 swap 1;
#X obj 393 254 -;
#X obj 285 312 *~;
#X obj 285 359 outlet~ right;
#X obj 61 312 *~;
#X obj 61 361 outlet~ left;
#X connect 0 0 9 0;
#X connect 0 0 7 0;
#X connect 1 0 2 0;
#X connect 2 0 3 0;
#X connect 3 0 4 0;
#X connect 4 0 9 1;
#X connect 4 1 5 0;
#X connect 5 0 6 0;
#X connect 5 1 6 1;
#X connect 6 0 7 0;
#X connect 7 0 8 0;
#X connect 9 0 10 0;
#X restore 113 282 pd panner;
#N canvas 1048 408 643 472 panner 0;
#X obj 61 54 inlet~ audio;
#X obj 282 56 inlet pan;
#X obj 282 89 + 90;
#X obj 282 122 / 180;
#X obj 282 166 trigger float float;
#X obj 393 209 swap 1;
#X obj 393 254 -;
#X obj 285 312 *~;
#X obj 285 359 outlet~ right;
#X obj 61 312 *~;
#X obj 61 361 outlet~ left;
#X connect 0 0 9 0;
#X connect 0 0 7 0;
#X connect 1 0 2 0;
#X connect 2 0 3 0;
#X connect 3 0 4 0;
#X connect 4 0 9 1;
#X connect 4 1 5 0;
#X connect 5 0 6 0;
#X connect 5 1 6 1;
#X connect 6 0 7 0;
#X connect 7 0 8 0;
#X connect 9 0 10 0;
#X restore 265 284 pd panner;
#X obj 114 325 throw~ left;
#X obj 266 325 throw~ right;
#X connect 0 0 6 0;
#X connect 1 0 7 0;
#X connect 2 0 4 0;
#X connect 3 0 8 0;
#X connect 3 0 9 0;
#X connect 4 0 5 0;
#X connect 5 0 6 1;
#X connect 5 0 7 1;
#X connect 6 0 10 0;
#X connect 7 0 11 0;
#X connect 8 0 10 1;
#X connect 9 0 11 1;
#X connect 10 0 12 0;
#X connect 11 0 13 0;
#X restore 675 466 pd mixer-channel;
#X text 1126 194 Score;
#X obj 1047 238 receive scoretime;
#X obj 1047 276 mod 128;
#X obj 1047 309 select 0 32 64 96;
#X msg 1047 391 52 48 64 67 76 79 81 83;
#X msg 1083 365 50 48 64 67 76 79 81 86;
#X obj 1085 436 send chords;
#X msg 1106 338 50 52 66 69 76 79 83 86;
#X obj 75 597 receive chords;
#X obj 240 699 trigger bang float;
#N canvas 1149 478 656 446 mixer-channel 0;
#X obj 80 42 inlet~ left;
#X obj 175 42 inlet~ right;
#X obj 293 66 inlet volume;
#X obj 411 138 inlet pan;
#X msg 293 97 \$1 20;
#X obj 293 128 line~;
#X obj 113 175 *~;
#X obj 202 172 *~;
#X obj 164 238 - 30;
#X obj 316 238 + 30;
#N canvas 1048 408 643 472 panner 0;
#X obj 61 54 inlet~ audio;
#X obj 282 56 inlet pan;
#X obj 282 89 + 90;
#X obj 282 122 / 180;
#X obj 282 166 trigger float float;
#X obj 393 209 swap 1;
#X obj 393 254 -;
#X obj 285 312 *~;
#X obj 285 359 outlet~ right;
#X obj 61 312 *~;
#X obj 61 361 outlet~ left;
#X connect 0 0 9 0;
#X connect 0 0 7 0;
#X connect 1 0 2 0;
#X connect 2 0 3 0;
#X connect 3 0 4 0;
#X connect 4 0 9 1;
#X connect 4 1 5 0;
#X connect 5 0 6 0;
#X connect 5 1 6 1;
#X connect 6 0 7 0;
#X connect 7 0 8 0;
#X connect 9 0 10 0;
#X restore 113 282 pd panner;
#N canvas 1048 408 643 472 panner 0;
#X obj 61 54 inlet~ audio;
#X obj 282 56 inlet pan;
#X obj 282 89 + 90;
#X obj 282 122 / 180;
#X obj 282 166 trigger float float;
#X obj 393 209 swap 1;
#X obj 393 254 -;
#X obj 285 312 *~;
#X obj 285 359 outlet~ right;
#X obj 61 312 *~;
#X obj 61 361 outlet~ left;
#X connect 0 0 9 0;
#X connect 0 0 7 0;
#X connect 1 0 2 0;
#X connect 2 0 3 0;
#X connect 3 0 4 0;
#X connect 4 0 9 1;
#X connect 4 1 5 0;
#X connect 5 0 6 0;
#X connect 5 1 6 1;
#X connect 6 0 7 0;
#X connect 7 0 8 0;
#X connect 9 0 10 0;
#X restore 265 284 pd panner;
#X obj 114 325 throw~ left;
#X obj 266 325 throw~ right;
#X connect 0 0 6 0;
#X connect 1 0 7 0;
#X connect 2 0 4 0;
#X connect 3 0 8 0;
#X connect 3 0 9 0;
#X connect 4 0 5 0;
#X connect 5 0 6 1;
#X connect 5 0 7 1;
#X connect 6 0 10 0;
#X connect 7 0 11 0;
#X connect 8 0 10 1;
#X connect 9 0 11 1;
#X connect 10 0 12 0;
#X connect 11 0 13 0;
#X restore 178 783 pd mixer-channel;
#X obj 240 735 *;
#X obj 311 756 receive pan1;
#N canvas 862 315 669 486 padsynth 0;
#X obj 264 40 inlet chord;
#X obj 264 79 trigger list bang;
#X obj 264 117 unpack 1 2 3 4 5 6 7 8;
#X obj 487 167 receive period;
#X obj 487 202 * 4;
#X obj 460 237 float;
#X obj 252 334 outlet~ left;
#X obj 385 333 outlet~ right;
#N canvas 882 455 657 420 oscillatorbank 0;
#X obj 114 63 inlet;
#X obj 114 94 mtof;
#X obj 114 125 phasor~ 300;
#X obj 114 156 -~ 0.5;
#X obj 209 63 inlet;
#X obj 209 94 mtof;
#X obj 209 125 phasor~ 300;
#X obj 209 156 -~ 0.5;
#X obj 313 63 inlet;
#X obj 313 94 mtof;
#X obj 313 125 phasor~ 300;
#X obj 313 156 -~ 0.5;
#X obj 414 63 inlet;
#X obj 414 94 mtof;
#X obj 414 125 phasor~ 300;
#X obj 414 156 -~ 0.5;
#X text 502 158 remove dc offset;
#X obj 210 220 *~ 0.1;
#X obj 210 267 outlet~;
#X connect 0 0 1 0;
#X connect 1 0 2 0;
#X connect 2 0 3 0;
#X connect 3 0 17 0;
#X connect 4 0 5 0;
#X connect 5 0 6 0;
#X connect 6 0 7 0;
#X connect 7 0 17 0;
#X connect 8 0 9 0;
#X connect 9 0 10 0;
#X connect 10 0 11 0;
#X connect 11 0 17 0;
#X connect 12 0 13 0;
#X connect 13 0 14 0;
#X connect 14 0 15 0;
#X connect 15 0 17 0;
#X connect 17 0 18 0;
#X restore 221 166 pd oscillatorbank;
#N canvas 882 455 657 420 oscillatorbank 0;
#X obj 114 63 inlet;
#X obj 114 94 mtof;
#X obj 114 125 phasor~ 300;
#X obj 114 156 -~ 0.5;
#X obj 209 63 inlet;
#X obj 209 94 mtof;
#X obj 209 125 phasor~ 300;
#X obj 209 156 -~ 0.5;
#X obj 313 63 inlet;
#X obj 313 94 mtof;
#X obj 313 125 phasor~ 300;
#X obj 313 156 -~ 0.5;
#X obj 414 63 inlet;
#X obj 414 94 mtof;
#X obj 414 125 phasor~ 300;
#X obj 414 156 -~ 0.5;
#X text 502 158 remove dc offset;
#X obj 210 220 *~ 0.1;
#X obj 210 267 outlet~;
#X connect 0 0 1 0;
#X connect 1 0 2 0;
#X connect 2 0 3 0;
#X connect 3 0 17 0;
#X connect 4 0 5 0;
#X connect 5 0 6 0;
#X connect 6 0 7 0;
#X connect 7 0 17 0;
#X connect 8 0 9 0;
#X connect 9 0 10 0;
#X connect 10 0 11 0;
#X connect 11 0 17 0;
#X connect 12 0 13 0;
#X connect 13 0 14 0;
#X connect 14 0 15 0;
#X connect 15 0 17 0;
#X connect 17 0 18 0;
#X restore 344 167 pd oscillatorbank;
#N canvas 850 300 828 552 stereopandelay 0;
#X obj 98 43 inlet~ left;
#X obj 207 42 inlet~ right;
#N canvas 1180 460 450 300 one-second-wander 0;
#X obj 185 184 outlet;
#X restore 423 80 pd one-second-wander;
#X obj 503 134 swap 1;
#X obj 503 170 -;
#X obj 503 204 * 1000;
#X obj 503 241 + 700;
#X obj 478 278 bp~ 600 4;
#X obj 423 205 * 1000;
#X obj 423 242 + 500;
#X obj 398 279 bp~ 500 3;
#X obj 252 277 * 0.5;
#X obj 252 310 + 0.02;
#X obj 139 276 * 0.5;
#X obj 139 309 + 0.02;
#X obj 397 315 *~ 0.7;
#X obj 97 354 *~;
#X obj 206 356 *~;
#X obj 397 353 delwrite~ \$0-ffff 100;
#X obj 97 473 *~ 0.4;
#X obj 206 473 *~ 0.4;
#X obj 97 519 outlet~;
#X obj 206 519 outlet~;
#X obj 400 380 * 40;
#X obj 400 407 + 10;
#X obj 400 461 line~;
#X msg 400 434 \$1 100;
#X obj 400 488 vd~ \$0-ffff 100;
#X connect 0 0 16 0;
#X connect 0 0 10 0;
#X connect 1 0 17 0;
#X connect 1 0 7 0;
#X connect 2 0 3 0;
#X connect 2 0 8 0;
#X connect 2 0 13 0;
#X connect 2 0 23 0;
#X connect 3 0 4 0;
#X connect 3 1 4 1;
#X connect 4 0 5 0;
#X connect 4 0 11 0;
#X connect 5 0 6 0;
#X connect 6 0 7 1;
#X connect 7 0 16 0;
#X connect 7 0 17 0;
#X connect 8 0 9 0;
#X connect 9 0 10 1;
#X connect 10 0 15 0;
#X connect 11 0 12 0;
#X connect 12 0 17 1;
#X connect 13 0 14 0;
#X connect 14 0 16 1;
#X connect 15 0 18 0;
#X connect 15 0 19 0;
#X connect 16 0 19 0;
#X connect 17 0 20 0;
#X connect 19 0 21 0;
#X connect 20 0 22 0;
#X connect 23 0 24 0;
#X connect 24 0 26 0;
#X connect 25 0 27 0;
#X connect 26 0 25 0;
#X connect 27 0 20 0;
#X restore 222 217 pd stereopandelay;
#N canvas 974 229 745 575 stereoamp 0;
#X obj 104 57 inlet~ left;
#X obj 215 56 inlet~ right;
#X obj 342 57 inlet decay;
#X obj 342 98 trigger float float;
#X obj 342 146 * 7;
#X obj 453 132 * 4;
#X obj 453 164 + 20;
#X obj 342 203 pack float float;
#X msg 342 239 1 20 0 \, 0 \$1 \$2;
#X obj 342 275 vline~;
#X obj 104 318 *~;
#X obj 215 318 *~;
#X obj 104 367 outlet~;
#X obj 215 367 outlet~;
#X connect 0 0 10 0;
#X connect 1 0 11 0;
#X connect 2 0 3 0;
#X connect 3 0 4 0;
#X connect 3 1 5 0;
#X connect 4 0 7 0;
#X connect 5 0 6 0;
#X connect 6 0 7 1;
#X connect 7 0 8 0;
#X connect 8 0 9 0;
#X connect 9 0 10 1;
#X connect 9 0 11 1;
#X connect 10 0 12 0;
#X connect 11 0 13 0;
#X restore 297 288 pd stereoamp;
#X connect 0 0 1 0;
#X connect 1 0 2 0;
#X connect 1 1 5 0;
#X connect 2 0 8 0;
#X connect 2 1 8 1;
#X connect 2 2 8 2;
#X connect 2 3 8 3;
#X connect 2 4 9 0;
#X connect 2 5 9 1;
#X connect 2 6 9 2;
#X connect 2 7 9 3;
#X connect 3 0 4 0;
#X connect 4 0 5 1;
#X connect 5 0 11 2;
#X connect 8 0 10 0;
#X connect 9 0 10 1;
#X connect 10 0 11 0;
#X connect 10 1 11 1;
#X connect 11 0 6 0;
#X connect 11 1 7 0;
#X restore 75 635 pd padsynth;
#X obj 42 25 tgl 15 0 start-stop empty empty 17 7 0 10 -204786 -1 -1
0 1;
#X text 16 6 start-stop;
#X obj 120 25 bng 15 250 50 0 zero empty zero 17 7 0 10 -204786 -1
-1;
#X obj 301 22 vsl 15 128 0.1 1.5 0 0 mast masterfade Master 0 -9 0
10 -204786 -1 -1 11000 1;
#X obj 301 160 tgl 15 0 mastmute empty on 17 7 0 10 -4034 -1 -1 0 1
;
#X obj 375 21 vsl 15 128 0 1 0 0 ch1 empty 1 4 -9 0 10 -203904 -1 -1
10100 1;
#X obj 398 137 tgl 15 0 m1 empty empty 17 7 0 10 -203904 -1 -1 1 1
;
#X obj 378 160 hsl 32 15 -45 45 0 0 pan1 empty pan 5 7 0 10 -203904
-1 -1 1300 1;
#X obj 427 21 vsl 15 128 0 1 0 0 ch2 empty 2 4 -9 0 10 -203904 -1 -1
9600 1;
#X obj 450 137 tgl 15 0 m2 empty empty 17 7 0 10 -203904 -1 -1 1 1
;
#X obj 430 160 hsl 32 15 -45 45 0 0 pan2 empty pan 5 7 0 10 -203904
-1 -1 1600 1;
#X obj 476 21 vsl 15 128 0 1 0 0 ch3 empty 3 4 -9 0 10 -203904 -1 -1
9800 1;
#X obj 499 137 tgl 15 0 m3 empty empty 17 7 0 10 -203904 -1 -1 1 1
;
#X obj 479 160 hsl 32 15 -45 45 0 0 pan3 empty pan 5 7 0 10 -203904
-1 -1 1600 1;
#X obj 528 21 vsl 15 128 0 1 0 0 ch4 empty 4 4 -9 0 10 -203904 -1 -1
11700 1;
#X obj 551 137 tgl 15 0 m4 empty empty 17 7 0 10 -203904 -1 -1 1 1
;
#X obj 531 160 hsl 32 15 -45 45 0 0 pan4 empty pan 5 7 0 10 -203904
-1 -1 1100 1;
#X obj 579 21 vsl 15 128 0 1 0 0 ch5 empty 5 4 -9 0 10 -203904 -1 -1
10400 1;
#X obj 602 137 tgl 15 0 m5 empty empty 17 7 0 10 -203904 -1 -1 1 1
;
#X obj 582 160 hsl 32 15 -45 45 0 0 pan5 empty pan 5 7 0 10 -203904
-1 -1 1200 1;
#X obj 630 21 vsl 15 128 0 1 0 0 ch6 empty 6 4 -9 0 10 -203904 -1 -1
10100 1;
#X obj 653 137 tgl 15 0 m6 empty empty 17 7 0 10 -203904 -1 -1 1 1
;
#X obj 633 160 hsl 32 15 -45 45 0 0 pan6 empty pan 5 7 0 10 -203904
-1 -1 1500 1;
#X obj 684 21 vsl 15 128 0 1 0 0 ch7 empty 7 4 -9 0 10 -203904 -1 -1
9900 1;
#X obj 707 137 tgl 15 0 m7 empty empty 17 7 0 10 -203904 -1 -1 1 1
;
#X obj 687 160 hsl 32 15 -45 45 0 0 pan7 empty pan 5 7 0 10 -203904
-1 -1 1400 1;
#X obj 736 21 vsl 15 128 0 1 0 0 ch8 empty 8 4 -9 0 10 -203904 -1 -1
11300 1;
#X obj 759 137 tgl 15 0 m8 empty empty 17 7 0 10 -203904 -1 -1 1 1
;
#X obj 738 160 hsl 32 15 -45 45 0 0 pan8 empty pan 5 7 0 10 -203904
-1 -1 1500 1;
#X obj 147 668 receive ch1;
#X obj 240 667 receive m1;
#N canvas 1064 123 450 300 start 0;
#X obj 114 55 loadbang;
#X msg 114 81 \; pd dsp 1;
#X obj 198 139 s chords;
#X msg 220 88 50 52 66 69 76 79 83 86;
#X connect 0 0 1 0;
#X connect 0 0 3 0;
#X connect 3 0 2 0;
#X restore 61 75 pd start;
#X text 85 553 Stereo Pads (channel 1);
#X text 548 552 Drums (channel 2);
#X obj 515 584 receive drumtime;
#X obj 646 759 receive ch2;
#X obj 733 759 receive m2;
#X obj 854 818 receive pan2;
#X obj 733 787 trigger bang float;
#X obj 733 815 *;
#N canvas 1149 478 656 446 mixer-channel 0;
#X obj 80 42 inlet~ left;
#X obj 175 42 inlet~ right;
#X obj 293 66 inlet volume;
#X obj 411 138 inlet pan;
#X msg 293 97 \$1 20;
#X obj 293 128 line~;
#X obj 113 175 *~;
#X obj 202 172 *~;
#X obj 164 238 - 30;
#X obj 316 238 + 30;
#N canvas 1048 408 643 472 panner 0;
#X obj 61 54 inlet~ audio;
#X obj 282 56 inlet pan;
#X obj 282 89 + 90;
#X obj 282 122 / 180;
#X obj 282 166 trigger float float;
#X obj 393 209 swap 1;
#X obj 393 254 -;
#X obj 285 312 *~;
#X obj 285 359 outlet~ right;
#X obj 61 312 *~;
#X obj 61 361 outlet~ left;
#X connect 0 0 9 0;
#X connect 0 0 7 0;
#X connect 1 0 2 0;
#X connect 2 0 3 0;
#X connect 3 0 4 0;
#X connect 4 0 9 1;
#X connect 4 1 5 0;
#X connect 5 0 6 0;
#X connect 5 1 6 1;
#X connect 6 0 7 0;
#X connect 7 0 8 0;
#X connect 9 0 10 0;
#X restore 113 282 pd panner;
#N canvas 1048 408 643 472 panner 0;
#X obj 61 54 inlet~ audio;
#X obj 282 56 inlet pan;
#X obj 282 89 + 90;
#X obj 282 122 / 180;
#X obj 282 166 trigger float float;
#X obj 393 209 swap 1;
#X obj 393 254 -;
#X obj 285 312 *~;
#X obj 285 359 outlet~ right;
#X obj 61 312 *~;
#X obj 61 361 outlet~ left;
#X connect 0 0 9 0;
#X connect 0 0 7 0;
#X connect 1 0 2 0;
#X connect 2 0 3 0;
#X connect 3 0 4 0;
#X connect 4 0 9 1;
#X connect 4 1 5 0;
#X connect 5 0 6 0;
#X connect 5 1 6 1;
#X connect 6 0 7 0;
#X connect 7 0 8 0;
#X connect 9 0 10 0;
#X restore 265 284 pd panner;
#X obj 114 325 throw~ left;
#X obj 266 325 throw~ right;
#X connect 0 0 6 0;
#X connect 1 0 7 0;
#X connect 2 0 4 0;
#X connect 3 0 8 0;
#X connect 3 0 9 0;
#X connect 4 0 5 0;
#X connect 5 0 6 1;
#X connect 5 0 7 1;
#X connect 6 0 10 0;
#X connect 7 0 11 0;
#X connect 8 0 10 1;
#X connect 9 0 11 1;
#X connect 10 0 12 0;
#X connect 11 0 13 0;
#X restore 571 858 pd mixer-channel;
#N canvas 849 188 673 561 kicksequence 0;
#X obj 218 53 inlet;
#X obj 218 87 mod 16;
#X obj 218 124 select 0 1 2 3 4 5 6 7;
#X obj 167 158 select 8 9 10 11 12 13 14 15;
#X msg 350 219 bang;
#X obj 350 250 random 2;
#X obj 317 287 spigot;
#X msg 235 342 bang;
#X obj 235 381 outlet;
#X connect 0 0 1 0;
#X connect 1 0 2 0;
#X connect 1 0 3 0;
#X connect 1 0 4 0;
#X connect 2 0 7 0;
#X connect 2 2 6 0;
#X connect 2 6 7 0;
#X connect 2 7 6 0;
#X connect 3 0 7 0;
#X connect 3 2 6 0;
#X connect 3 4 7 0;
#X connect 4 0 5 0;
#X connect 5 0 6 1;
#X connect 6 0 7 0;
#X connect 7 0 8 0;
#X restore 515 615 pd kicksequence;
#N canvas 946 166 450 399 kickdrum-wrap 0;
#X obj 154 47 inlet;
#X obj 154 80 trigger;
#X obj 154 113 random 4;
#X obj 154 146 select 0 1 2;
#X msg 154 179 300 130;
#X msg 180 211 600 100;
#X obj 154 310 outlet~;
#X msg 212 246 1800 80;
#N canvas 1056 337 605 498 kickdrum-synth 0;
#X obj 135 25 inlet;
#X obj 93 55 trigger bang bang list;
#X obj 69 84 del 2;
#X msg 144 87 1 2;
#X obj 212 86 unpack 1 2;
#X obj 70 145 pack 1 2;
#X msg 70 115 0;
#X obj 108 183 line~;
#X obj 108 217 *~;
#X obj 108 285 *~ 100;
#X obj 108 319 +~ 20;
#X obj 108 353 osc~;
#X obj 108 387 *~;
#X obj 108 421 *~ 0.3;
#X obj 108 455 outlet~;
#X obj 108 251 *~;
#X connect 0 0 1 0;
#X connect 1 0 2 0;
#X connect 1 1 3 0;
#X connect 1 2 4 0;
#X connect 2 0 6 0;
#X connect 3 0 7 0;
#X connect 4 0 5 1;
#X connect 4 1 9 1;
#X connect 5 0 7 0;
#X connect 6 0 5 0;
#X connect 7 0 8 0;
#X connect 7 0 8 1;
#X connect 8 0 15 0;
#X connect 8 0 15 1;
#X connect 9 0 10 0;
#X connect 10 0 11 0;
#X connect 11 0 12 0;
#X connect 12 0 13 0;
#X connect 13 0 14 0;
#X connect 15 0 9 0;
#X connect 15 0 12 1;
#X restore 154 277 pd kickdrum-synth;
#X connect 0 0 1 0;
#X connect 1 0 2 0;
#X connect 2 0 3 0;
#X connect 3 0 4 0;
#X connect 3 1 5 0;
#X connect 3 2 7 0;
#X connect 4 0 8 0;
#X connect 5 0 8 0;
#X connect 7 0 8 0;
#X connect 8 0 6 0;
#X restore 515 645 pd kickdrum-wrap;
#N canvas 1001 504 450 325 snarepattern 0;
#X obj 114 58 inlet;
#X obj 114 100 mod 16;
#X obj 114 142 select 2 3 4 5 10 11 12;
#X obj 114 184 outlet;
#X connect 0 0 1 0;
#X connect 1 0 2 0;
#X connect 2 0 3 0;
#X connect 2 1 3 0;
#X connect 2 2 3 0;
#X connect 2 3 3 0;
#X connect 2 4 3 0;
#X connect 2 5 3 0;
#X connect 2 6 3 0;
#X restore 602 674 pd snarepattern;
#N canvas 1016 292 450 300 snare-wrap 0;
#X obj 161 8 inlet bang;
#X obj 161 46 random 6;
#X obj 161 80 select 0 1 2 3;
#X msg 179 176 100 400 1 0.3;
#X msg 201 201 50 300 4 0.9;
#X obj 156 269 outlet~;
#N canvas 928 279 450 552 snaresynth 0;
#X obj 125 34 inlet params;
#X obj 125 67 trigger bang bang list;
#X obj 255 100 unpack 1 2 3 4;
#X obj 189 97 del 2;
#X msg 189 125 0 400;
#X msg 113 128 1 1;
#X obj 113 163 line;
#X obj 113 192 *;
#X obj 113 224 *;
#X obj 45 262 noise~;
#X obj 133 264 * 100;
#X obj 133 292 + 600;
#X obj 108 322 bp~ 400 2;
#X obj 123 353 sig~;
#X obj 123 386 lop~ 8;
#X obj 108 420 *~;
#X obj 108 453 *~;
#X obj 109 487 outlet~;
#X connect 0 0 1 0;
#X connect 1 0 5 0;
#X connect 1 1 3 0;
#X connect 1 2 2 0;
#X connect 2 0 10 1;
#X connect 2 1 11 1;
#X connect 2 2 12 2;
#X connect 2 3 16 1;
#X connect 3 0 4 0;
#X connect 4 0 6 0;
#X connect 5 0 6 0;
#X connect 6 0 7 0;
#X connect 6 0 7 1;
#X connect 7 0 8 0;
#X connect 7 0 8 1;
#X connect 8 0 10 0;
#X connect 8 0 13 0;
#X connect 9 0 12 0;
#X connect 10 0 11 0;
#X connect 11 0 12 1;
#X connect 12 0 15 0;
#X connect 13 0 14 0;
#X connect 14 0 15 1;
#X connect 15 0 16 0;
#X connect 16 0 17 0;
#X restore 156 234 pd snaresynth;
#X msg 128 126 500 600 1 0.2;
#X msg 155 151 200 600 1 0.25;
#X connect 0 0 1 0;
#X connect 1 0 2 0;
#X connect 2 0 7 0;
#X connect 2 1 8 0;
#X connect 2 2 3 0;
#X connect 2 3 4 0;
#X connect 3 0 6 0;
#X connect 4 0 6 0;
#X connect 6 0 5 0;
#X connect 7 0 6 0;
#X connect 8 0 6 0;
#X restore 602 701 pd snare-wrap;
#N canvas 1287 29 509 553 snareeffects 0;
#X obj 126 49 inlet~;
#X obj 230 48 loadbang;
#X msg 195 91 375;
#X msg 240 90 0.6;
#X msg 289 90 0.9;
#X obj 163 167 phasor~ 0 456;
#X obj 162 200 *~ 5000;
#X obj 161 233 +~ 300;
#X obj 128 269 vcf~ 100 0.7;
#X obj 128 313 *~ 0.73;
#X obj 128 349 outlet~;
#N canvas 995 190 450 375 delay 0;
#X obj 58 38 inlet~;
#X obj 141 38 inlet time;
#X obj 257 38 inlet feedback;
#X obj 257 72 clip 0 0.9;
#X obj 141 108 delread~ \$0-zzzz 250;
#X obj 141 137 hip~ 20;
#X obj 140 166 lop~ 2000;
#X obj 141 193 *~ 0.6;
#X obj 85 244 +~;
#X obj 182 244 +~;
#X obj 85 276 outlet~;
#X obj 181 276 delwrite~ \$0-zzzz 5000;
#X obj 344 276 outlet~;
#X connect 0 0 8 0;
#X connect 0 0 9 1;
#X connect 0 0 12 0;
#X connect 1 0 4 0;
#X connect 2 0 3 0;
#X connect 3 0 7 1;
#X connect 4 0 5 0;
#X connect 5 0 6 0;
#X connect 6 0 7 0;
#X connect 7 0 8 1;
#X connect 7 0 9 0;
#X connect 8 0 10 0;
#X connect 9 0 11 0;
#X restore 127 126 pd delay;
#X connect 0 0 11 0;
#X connect 1 0 4 0;
#X connect 1 0 3 0;
#X connect 1 0 2 0;
#X connect 2 0 11 1;
#X connect 3 0 11 2;
#X connect 4 0 8 2;
#X connect 5 0 6 0;
#X connect 6 0 7 0;
#X connect 7 0 8 1;
#X connect 8 0 9 0;
#X connect 9 0 10 0;
#X connect 11 0 8 0;
#X restore 602 729 pd snareeffects;
#X text 1136 537 Bassline (channel 3);
#X obj 1036 572 receive chords;
#X obj 1139 571 receive synthtime;
#X obj 1278 571 receive ch3;
#X obj 1361 571 receive m3;
#X obj 1264 785 receive pan3;
#X obj 1302 612 trigger bang float;
#X obj 1303 643 *;
#N canvas 1149 478 656 446 mixer-channel 0;
#X obj 80 42 inlet~ left;
#X obj 175 42 inlet~ right;
#X obj 293 66 inlet volume;
#X obj 411 138 inlet pan;
#X msg 293 97 \$1 20;
#X obj 293 128 line~;
#X obj 113 175 *~;
#X obj 202 172 *~;
#X obj 164 238 - 30;
#X obj 316 238 + 30;
#N canvas 1048 408 643 472 panner 0;
#X obj 61 54 inlet~ audio;
#X obj 282 56 inlet pan;
#X obj 282 89 + 90;
#X obj 282 122 / 180;
#X obj 282 166 trigger float float;
#X obj 393 209 swap 1;
#X obj 393 254 -;
#X obj 285 312 *~;
#X obj 285 359 outlet~ right;
#X obj 61 312 *~;
#X obj 61 361 outlet~ left;
#X connect 0 0 9 0;
#X connect 0 0 7 0;
#X connect 1 0 2 0;
#X connect 2 0 3 0;
#X connect 3 0 4 0;
#X connect 4 0 9 1;
#X connect 4 1 5 0;
#X connect 5 0 6 0;
#X connect 5 1 6 1;
#X connect 6 0 7 0;
#X connect 7 0 8 0;
#X connect 9 0 10 0;
#X restore 113 282 pd panner;
#N canvas 1048 408 643 472 panner 0;
#X obj 61 54 inlet~ audio;
#X obj 282 56 inlet pan;
#X obj 282 89 + 90;
#X obj 282 122 / 180;
#X obj 282 166 trigger float float;
#X obj 393 209 swap 1;
#X obj 393 254 -;
#X obj 285 312 *~;
#X obj 285 359 outlet~ right;
#X obj 61 312 *~;
#X obj 61 361 outlet~ left;
#X connect 0 0 9 0;
#X connect 0 0 7 0;
#X connect 1 0 2 0;
#X connect 2 0 3 0;
#X connect 3 0 4 0;
#X connect 4 0 9 1;
#X connect 4 1 5 0;
#X connect 5 0 6 0;
#X connect 5 1 6 1;
#X connect 6 0 7 0;
#X connect 7 0 8 0;
#X connect 9 0 10 0;
#X restore 265 284 pd panner;
#X obj 114 325 throw~ left;
#X obj 266 325 throw~ right;
#X connect 0 0 6 0;
#X connect 1 0 7 0;
#X connect 2 0 4 0;
#X connect 3 0 8 0;
#X connect 3 0 9 0;
#X connect 4 0 5 0;
#X connect 5 0 6 1;
#X connect 5 0 7 1;
#X connect 6 0 10 0;
#X connect 7 0 11 0;
#X connect 8 0 10 1;
#X connect 9 0 11 1;
#X connect 10 0 12 0;
#X connect 11 0 13 0;
#X restore 1159 824 pd mixer-channel;
#X obj 1123 676 receive period;
#X obj 1220 676 loadbang;
#X msg 1220 703 0.6;
#X obj 1123 703 * 2;
#N canvas 1072 78 450 787 basesequence 0;
#X obj 126 54 inlet chords;
#X obj 211 97 inlet;
#X obj 211 126 mod 16;
#X obj 211 164 select 0 1 2 3 4 5 6 7;
#X obj 164 199 select 8 9 10 11 12 13 14 15;
#X msg 333 249 bang;
#X obj 333 280 random 2;
#X obj 282 315 spigot;
#X obj 183 362 unpack 1 2;
#X obj 282 394 float;
#X obj 282 429 - 12;
#X obj 103 429 float;
#X obj 211 429 float;
#X obj 211 495 outlet;
#X connect 0 0 8 0;
#X connect 1 0 2 0;
#X connect 2 0 5 0;
#X connect 2 0 3 0;
#X connect 2 0 4 0;
#X connect 3 0 12 0;
#X connect 3 2 7 0;
#X connect 3 6 12 0;
#X connect 4 2 7 0;
#X connect 4 4 11 0;
#X connect 5 0 6 0;
#X connect 6 0 7 1;
#X connect 7 0 9 0;
#X connect 8 0 11 1;
#X connect 8 1 12 1;
#X connect 8 1 9 1;
#X connect 9 0 10 0;
#X connect 10 0 13 0;
#X connect 11 0 13 0;
#X connect 12 0 13 0;
#X restore 1036 609 pd basesequence;
#N canvas 606 172 596 639 basssynth 0;
#X obj 155 66 inlet;
#X text 183 90 (note \, 10 \, 11 \, 12 \, f1 \, f2 \, A \, D \, Amp)
;
#X obj 155 201 outlet~;
#N canvas 892 269 710 631 cosynth 0;
#X obj 130 27 inlet parameters;
#X obj 130 111 mtof;
#X obj 395 118 * 4;
#X obj 472 116 * 8;
#X obj 43 230 trigger bang bang;
#X obj 177 230 trigger float float;
#X obj 330 230 osc~;
#X obj 397 232 osc~;
#X obj 475 230 osc~;
#X obj 397 161 *;
#X obj 475 161 *;
#X obj 43 287 pack 1 1;
#X obj 330 287 *~ 0.09;
#X obj 396 287 *~ 0.05;
#X obj 474 287 *~ 0.02;
#X obj 331 358 clip~ -0.1 0.1;
#X obj 142 356 del 1;
#X obj 142 398 pack 0 1;
#X obj 142 440 line;
#X obj 142 476 *~;
#X obj 142 518 *~;
#X obj 141 552 outlet~;
#X obj 130 69 unpack 1 2 3 4 5 6 7 8 9;
#X connect 0 0 22 0;
#X connect 1 0 4 0;
#X connect 1 0 6 0;
#X connect 1 0 9 0;
#X connect 1 0 10 0;
#X connect 2 0 9 1;
#X connect 3 0 10 1;
#X connect 4 0 11 0;
#X connect 4 1 16 0;
#X connect 5 0 11 1;
#X connect 5 1 16 1;
#X connect 6 0 12 0;
#X connect 7 0 13 0;
#X connect 8 0 14 0;
#X connect 9 0 7 0;
#X connect 10 0 8 0;
#X connect 11 0 18 0;
#X connect 12 0 15 0;
#X connect 13 0 15 0;
#X connect 14 0 15 0;
#X connect 15 0 19 1;
#X connect 16 0 17 0;
#X connect 17 0 18 0;
#X connect 18 0 19 0;
#X connect 19 0 20 0;
#X connect 20 0 21 0;
#X connect 22 0 1 0;
#X connect 22 1 12 1;
#X connect 22 2 13 1;
#X connect 22 3 14 1;
#X connect 22 4 2 0;
#X connect 22 5 3 0;
#X connect 22 6 5 0;
#X connect 22 7 17 1;
#X connect 22 8 20 1;
#X restore 155 156 pd cosynth;
#X msg 155 111 \$1 0.298 0.353 0.172 0.122 0.251 20 1000 0.9;
#X connect 0 0 4 0;
#X connect 3 0 2 0;
#X connect 4 0 3 0;
#X restore 1036 636 pd basssynth;
#N canvas 821 179 640 583 filterdelay 0;
#X obj 121 91 inlet tempo;
#X obj 242 92 inlet feedback;
#X obj 365 92 inlet resonance;
#X obj 23 92 inlet~;
#X obj 136 130 phasor~ 0.212;
#X obj 136 167 lop~ 0.2;
#X obj 216 169 loadbang;
#X msg 216 202 0.3;
#X obj 136 204 *~ 900;
#X obj 136 241 +~ 200;
#X obj 102 282 vcf~ 100 0.7;
#X obj 68 356 outlet~;
#X obj 171 355 outlet~;
#N canvas 1021 517 450 300 delay 0;
#X obj 78 58 inlet~;
#X obj 161 58 inlet time;
#X obj 277 58 inlet feedback;
#X obj 277 92 clip 0 0.9;
#X obj 161 128 delread~ \$0-zzzz 250;
#X obj 161 157 hip~ 20;
#X obj 160 186 lop~ 2000;
#X obj 161 213 *~ 0.6;
#X obj 105 264 +~;
#X obj 202 264 +~;
#X obj 105 296 outlet~;
#X obj 201 296 delwrite~ \$0-zzzz 5000;
#X obj 364 296 outlet~;
#X connect 0 0 8 0;
#X connect 0 0 9 1;
#X connect 0 0 12 0;
#X connect 1 0 4 0;
#X connect 2 0 3 0;
#X connect 3 0 7 1;
#X connect 4 0 5 0;
#X connect 5 0 6 0;
#X connect 6 0 7 0;
#X connect 7 0 8 1;
#X connect 7 0 9 0;
#X connect 8 0 10 0;
#X connect 9 0 11 0;
#X restore 99 319 pd delay;
#X connect 0 0 13 1;
#X connect 1 0 13 2;
#X connect 2 0 10 2;
#X connect 3 0 10 0;
#X connect 4 0 5 0;
#X connect 5 0 8 0;
#X connect 6 0 7 0;
#X connect 7 0 10 2;
#X connect 8 0 9 0;
#X connect 9 0 10 1;
#X connect 10 0 13 0;
#X connect 13 0 11 0;
#X connect 13 1 12 0;
#X restore 1096 738 pd filterdelay;
#N canvas 995 190 450 375 delay 0;
#X obj 58 38 inlet~;
#X obj 141 38 inlet time;
#X obj 257 38 inlet feedback;
#X obj 257 72 clip 0 0.9;
#X obj 141 108 delread~ \$0-zzzz 250;
#X obj 141 137 hip~ 20;
#X obj 140 166 lop~ 2000;
#X obj 141 193 *~ 0.6;
#X obj 85 244 +~;
#X obj 182 244 +~;
#X obj 85 276 outlet~;
#X obj 181 276 delwrite~ \$0-zzzz 5000;
#X obj 344 276 outlet~;
#X connect 0 0 8 0;
#X connect 0 0 9 1;
#X connect 0 0 12 0;
#X connect 1 0 4 0;
#X connect 2 0 3 0;
#X connect 3 0 7 1;
#X connect 4 0 5 0;
#X connect 5 0 6 0;
#X connect 6 0 7 0;
#X connect 7 0 8 1;
#X connect 7 0 9 0;
#X connect 8 0 10 0;
#X connect 9 0 11 0;
#X restore 137 136 pd delay;
#N canvas 1231 288 450 300 delay 0;
#X obj 68 48 inlet~;
#X obj 151 48 inlet time;
#X obj 267 48 inlet feedback;
#X obj 267 82 clip 0 0.9;
#X obj 151 118 delread~ \$0-zzzz 250;
#X obj 151 147 hip~ 20;
#X obj 150 176 lop~ 2000;
#X obj 151 203 *~ 0.6;
#X obj 95 254 +~;
#X obj 192 254 +~;
#X obj 95 286 outlet~;
#X obj 191 286 delwrite~ \$0-zzzz 5000;
#X obj 354 286 outlet~;
#X connect 0 0 8 0;
#X connect 0 0 9 1;
#X connect 0 0 12 0;
#X connect 1 0 4 0;
#X connect 2 0 3 0;
#X connect 3 0 7 1;
#X connect 4 0 5 0;
#X connect 5 0 6 0;
#X connect 6 0 7 0;
#X connect 7 0 8 1;
#X connect 7 0 9 0;
#X connect 8 0 10 0;
#X connect 9 0 11 0;
#X restore 738 506 pd delay;
#X obj 105 965 receive chords;
#X text 108 940 Plucks (channel 4);
#N canvas 214 345 634 496 pluckstrings 0;
#X obj 89 32 inlet chords;
#X obj 116 150 receive period;
#X obj 113 278 receive ch4;
#X obj 195 278 receive m4;
#X obj 235 364 receive pan4;
#X obj 116 185 * 0.5;
#X obj 223 150 loadbang;
#X obj 152 313 trigger bang float;
#X obj 152 348 *;
#N canvas 1149 478 656 446 mixer-channel 0;
#X obj 80 42 inlet~ left;
#X obj 175 42 inlet~ right;
#X obj 293 66 inlet volume;
#X obj 411 138 inlet pan;
#X msg 293 97 \$1 20;
#X obj 293 128 line~;
#X obj 113 175 *~;
#X obj 202 172 *~;
#X obj 164 238 - 30;
#X obj 316 238 + 30;
#N canvas 1048 408 643 472 panner 0;
#X obj 61 54 inlet~ audio;
#X obj 282 56 inlet pan;
#X obj 282 89 + 90;
#X obj 282 122 / 180;
#X obj 282 166 trigger float float;
#X obj 393 209 swap 1;
#X obj 393 254 -;
#X obj 285 312 *~;
#X obj 285 359 outlet~ right;
#X obj 61 312 *~;
#X obj 61 361 outlet~ left;
#X connect 0 0 9 0;
#X connect 0 0 7 0;
#X connect 1 0 2 0;
#X connect 2 0 3 0;
#X connect 3 0 4 0;
#X connect 4 0 9 1;
#X connect 4 1 5 0;
#X connect 5 0 6 0;
#X connect 5 1 6 1;
#X connect 6 0 7 0;
#X connect 7 0 8 0;
#X connect 9 0 10 0;
#X restore 113 282 pd panner;
#N canvas 1048 408 643 472 panner 0;
#X obj 61 54 inlet~ audio;
#X obj 282 56 inlet pan;
#X obj 282 89 + 90;
#X obj 282 122 / 180;
#X obj 282 166 trigger float float;
#X obj 393 209 swap 1;
#X obj 393 254 -;
#X obj 285 312 *~;
#X obj 285 359 outlet~ right;
#X obj 61 312 *~;
#X obj 61 361 outlet~ left;
#X connect 0 0 9 0;
#X connect 0 0 7 0;
#X connect 1 0 2 0;
#X connect 2 0 3 0;
#X connect 3 0 4 0;
#X connect 4 0 9 1;
#X connect 4 1 5 0;
#X connect 5 0 6 0;
#X connect 5 1 6 1;
#X connect 6 0 7 0;
#X connect 7 0 8 0;
#X connect 9 0 10 0;
#X restore 265 284 pd panner;
#X obj 114 325 throw~ left;
#X obj 266 325 throw~ right;
#X connect 0 0 6 0;
#X connect 1 0 7 0;
#X connect 2 0 4 0;
#X connect 3 0 8 0;
#X connect 3 0 9 0;
#X connect 4 0 5 0;
#X connect 5 0 6 1;
#X connect 5 0 7 1;
#X connect 6 0 10 0;
#X connect 7 0 11 0;
#X connect 8 0 10 1;
#X connect 9 0 11 1;
#X connect 10 0 12 0;
#X connect 11 0 13 0;
#X restore 90 398 pd mixer-channel;
#X msg 223 185 0.05;
#N canvas 374 685 450 300 pluckseq 0;
#X obj 170 31 inlet;
#X obj 170 64 unpack 1 2 3 4 5 6 7 8;
#X obj 170 97 receive synthtime;
#X obj 170 130 mod 8;
#X obj 170 163 select 0 1 2 3 4 5 6 7;
#N canvas 595 568 450 300 fiftypercent 0;
#X obj 186 74 inlet;
#X obj 186 104 random 2;
#X obj 186 134 select 1;
#X obj 186 164 outlet;
#X connect 0 0 1 0;
#X connect 1 0 2 0;
#X connect 2 0 3 0;
#X restore 170 196 pd fiftypercent;
#X obj 117 234 float;
#X obj 170 229 float;
#X obj 252 234 float;
#X obj 312 234 float;
#X obj 170 262 outlet;
#X connect 0 0 1 0;
#X connect 1 4 6 1;
#X connect 1 5 7 1;
#X connect 1 6 8 1;
#X connect 1 7 9 1;
#X connect 2 0 3 0;
#X connect 3 0 4 0;
#X connect 4 0 6 0;
#X connect 4 1 7 0;
#X connect 4 2 5 0;
#X connect 4 3 8 0;
#X connect 4 6 9 0;
#X connect 5 0 6 0;
#X connect 6 0 10 0;
#X connect 7 0 10 0;
#X connect 8 0 10 0;
#X connect 9 0 10 0;
#X restore 89 67 pd pluckseq;
#N canvas 466 593 450 300 plucksynth 0;
#X obj 82 32 inlet;
#X msg 82 60 \$1 0.298 0.353 0.172 0.122 0.502 10 100 0.4;
#N canvas 892 269 710 631 cosynth 0;
#X obj 130 27 inlet parameters;
#X obj 130 111 mtof;
#X obj 395 118 * 4;
#X obj 472 116 * 8;
#X obj 43 230 trigger bang bang;
#X obj 177 230 trigger float float;
#X obj 330 230 osc~;
#X obj 397 232 osc~;
#X obj 475 230 osc~;
#X obj 397 161 *;
#X obj 475 161 *;
#X obj 43 287 pack 1 1;
#X obj 330 287 *~ 0.09;
#X obj 396 287 *~ 0.05;
#X obj 474 287 *~ 0.02;
#X obj 331 358 clip~ -0.1 0.1;
#X obj 142 356 del 1;
#X obj 142 398 pack 0 1;
#X obj 142 440 line;
#X obj 142 476 *~;
#X obj 142 518 *~;
#X obj 141 552 outlet~;
#X obj 130 69 unpack 1 2 3 4 5 6 7 8 9;
#X connect 0 0 22 0;
#X connect 1 0 4 0;
#X connect 1 0 6 0;
#X connect 1 0 9 0;
#X connect 1 0 10 0;
#X connect 2 0 9 1;
#X connect 3 0 10 1;
#X connect 4 0 11 0;
#X connect 4 1 16 0;
#X connect 5 0 11 1;
#X connect 5 1 16 1;
#X connect 6 0 12 0;
#X connect 7 0 13 0;
#X connect 8 0 14 0;
#X connect 9 0 7 0;
#X connect 10 0 8 0;
#X connect 11 0 18 0;
#X connect 12 0 15 0;
#X connect 13 0 15 0;
#X connect 14 0 15 0;
#X connect 15 0 19 1;
#X connect 16 0 17 0;
#X connect 17 0 18 0;
#X connect 18 0 19 0;
#X connect 19 0 20 0;
#X connect 20 0 21 0;
#X connect 22 0 1 0;
#X connect 22 1 12 1;
#X connect 22 2 13 1;
#X connect 22 3 14 1;
#X connect 22 4 2 0;
#X connect 22 5 3 0;
#X connect 22 6 5 0;
#X connect 22 7 17 1;
#X connect 22 8 20 1;
#X restore 82 88 pd cosynth;
#X obj 82 116 outlet~;
#X connect 0 0 1 0;
#X connect 1 0 2 0;
#X connect 2 0 3 0;
#X restore 89 102 pd plucksynth;
#N canvas 821 179 640 583 filterdelay 0;
#X obj 121 91 inlet tempo;
#X obj 242 92 inlet feedback;
#X obj 365 92 inlet resonance;
#X obj 23 92 inlet~;
#X obj 136 130 phasor~ 0.212;
#X obj 136 167 lop~ 0.2;
#X obj 216 169 loadbang;
#X msg 216 202 0.3;
#X obj 136 204 *~ 900;
#X obj 136 241 +~ 200;
#X obj 102 282 vcf~ 100 0.7;
#X obj 68 356 outlet~;
#X obj 171 355 outlet~;
#N canvas 1021 517 450 300 delay 0;
#X obj 78 58 inlet~;
#X obj 161 58 inlet time;
#X obj 277 58 inlet feedback;
#X obj 277 92 clip 0 0.9;
#X obj 161 128 delread~ \$0-zzzz 250;
#X obj 161 157 hip~ 20;
#X obj 160 186 lop~ 2000;
#X obj 161 213 *~ 0.6;
#X obj 105 264 +~;
#X obj 202 264 +~;
#X obj 105 296 outlet~;
#X obj 201 296 delwrite~ \$0-zzzz 5000;
#X obj 364 296 outlet~;
#X connect 0 0 8 0;
#X connect 0 0 9 1;
#X connect 0 0 12 0;
#X connect 1 0 4 0;
#X connect 2 0 3 0;
#X connect 3 0 7 1;
#X connect 4 0 5 0;
#X connect 5 0 6 0;
#X connect 6 0 7 0;
#X connect 7 0 8 1;
#X connect 7 0 9 0;
#X connect 8 0 10 0;
#X connect 9 0 11 0;
#X restore 99 319 pd delay;
#X connect 0 0 13 1;
#X connect 1 0 13 2;
#X connect 2 0 10 2;
#X connect 3 0 10 0;
#X connect 4 0 5 0;
#X connect 5 0 8 0;
#X connect 6 0 7 0;
#X connect 7 0 10 2;
#X connect 8 0 9 0;
#X connect 9 0 10 1;
#X connect 10 0 13 0;
#X connect 13 0 11 0;
#X connect 13 1 12 0;
#X restore 89 242 pd filterdelay;
#X connect 0 0 11 0;
#X connect 1 0 5 0;
#X connect 2 0 8 0;
#X connect 3 0 7 0;
#X connect 4 0 9 3;
#X connect 5 0 13 1;
#X connect 6 0 10 0;
#X connect 7 0 8 0;
#X connect 7 1 8 1;
#X connect 8 0 9 2;
#X connect 10 0 13 2;
#X connect 11 0 12 0;
#X connect 12 0 13 0;
#X connect 13 0 9 0;
#X connect 13 1 9 1;
#X restore 105 996 pd pluckstrings;
#X text 373 944 Arp Part (channel 5);
#X obj 358 969 receive chords;
#N canvas 301 192 773 567 arppart 0;
#X obj 99 42 inlet chords;
#X obj 127 160 receive period;
#X obj 233 160 loadbang;
#X obj 162 323 trigger bang float;
#X obj 162 358 *;
#N canvas 1149 478 656 446 mixer-channel 0;
#X obj 80 42 inlet~ left;
#X obj 175 42 inlet~ right;
#X obj 293 66 inlet volume;
#X obj 411 138 inlet pan;
#X msg 293 97 \$1 20;
#X obj 293 128 line~;
#X obj 113 175 *~;
#X obj 202 172 *~;
#X obj 164 238 - 30;
#X obj 316 238 + 30;
#N canvas 1048 408 643 472 panner 0;
#X obj 61 54 inlet~ audio;
#X obj 282 56 inlet pan;
#X obj 282 89 + 90;
#X obj 282 122 / 180;
#X obj 282 166 trigger float float;
#X obj 393 209 swap 1;
#X obj 393 254 -;
#X obj 285 312 *~;
#X obj 285 359 outlet~ right;
#X obj 61 312 *~;
#X obj 61 361 outlet~ left;
#X connect 0 0 9 0;
#X connect 0 0 7 0;
#X connect 1 0 2 0;
#X connect 2 0 3 0;
#X connect 3 0 4 0;
#X connect 4 0 9 1;
#X connect 4 1 5 0;
#X connect 5 0 6 0;
#X connect 5 1 6 1;
#X connect 6 0 7 0;
#X connect 7 0 8 0;
#X connect 9 0 10 0;
#X restore 113 282 pd panner;
#N canvas 1048 408 643 472 panner 0;
#X obj 61 54 inlet~ audio;
#X obj 282 56 inlet pan;
#X obj 282 89 + 90;
#X obj 282 122 / 180;
#X obj 282 166 trigger float float;
#X obj 393 209 swap 1;
#X obj 393 254 -;
#X obj 285 312 *~;
#X obj 285 359 outlet~ right;
#X obj 61 312 *~;
#X obj 61 361 outlet~ left;
#X connect 0 0 9 0;
#X connect 0 0 7 0;
#X connect 1 0 2 0;
#X connect 2 0 3 0;
#X connect 3 0 4 0;
#X connect 4 0 9 1;
#X connect 4 1 5 0;
#X connect 5 0 6 0;
#X connect 5 1 6 1;
#X connect 6 0 7 0;
#X connect 7 0 8 0;
#X connect 9 0 10 0;
#X restore 265 284 pd panner;
#X obj 114 325 throw~ left;
#X obj 266 325 throw~ right;
#X connect 0 0 6 0;
#X connect 1 0 7 0;
#X connect 2 0 4 0;
#X connect 3 0 8 0;
#X connect 3 0 9 0;
#X connect 4 0 5 0;
#X connect 5 0 6 1;
#X connect 5 0 7 1;
#X connect 6 0 10 0;
#X connect 7 0 11 0;
#X connect 8 0 10 1;
#X connect 9 0 11 1;
#X connect 10 0 12 0;
#X connect 11 0 13 0;
#X restore 100 408 pd mixer-channel;
#X obj 127 195 * 3;
#X msg 233 195 0.3;
#X obj 123 288 receive ch5;
#X obj 205 288 receive m5;
#X obj 245 374 receive pan5;
#N canvas 633 298 819 440 arpsequence 0;
#X obj 229 47 inlet chord;
#X obj 291 76 inlet trigger;
#X obj 291 102 random 12;
#X obj 291 128 select 0 1 2 3 4 5 6 7 8 9 10;
#X obj 229 182 unpack 1 2 3 4 5 6 7 8;
#X obj 558 257 + 12;
#X obj 613 257 + 12;
#X obj 662 257 + 12;
#X obj 149 306 float;
#X obj 206 306 float;
#X obj 267 306 float;
#X obj 320 306 float;
#X obj 377 306 float;
#X obj 431 306 float;
#X obj 481 306 float;
#X obj 531 306 float;
#X obj 586 306 float;
#X obj 635 306 float;
#X obj 96 306 float;
#X obj 303 367 outlet;
#X connect 0 0 4 0;
#X connect 1 0 2 0;
#X connect 2 0 3 0;
#X connect 3 0 18 0;
#X connect 3 1 8 0;
#X connect 3 2 9 0;
#X connect 3 3 10 0;
#X connect 3 4 11 0;
#X connect 3 5 12 0;
#X connect 3 6 13 0;
#X connect 3 7 14 0;
#X connect 3 8 15 0;
#X connect 3 9 16 0;
#X connect 3 10 17 0;
#X connect 4 0 18 1;
#X connect 4 1 8 1;
#X connect 4 2 9 1;
#X connect 4 3 10 1;
#X connect 4 4 11 1;
#X connect 4 5 5 1;
#X connect 4 5 12 1;
#X connect 4 6 6 0;
#X connect 4 6 13 1;
#X connect 4 7 7 0;
#X connect 4 7 14 1;
#X connect 5 0 15 1;
#X connect 6 0 16 1;
#X connect 7 0 17 1;
#X connect 8 0 19 0;
#X connect 9 0 19 0;
#X connect 10 0 19 0;
#X connect 11 0 19 0;
#X connect 12 0 19 0;
#X connect 13 0 19 0;
#X connect 14 0 19 0;
#X connect 15 0 19 0;
#X connect 16 0 19 0;
#X connect 17 0 19 0;
#X connect 18 0 19 0;
#X restore 99 77 pd arpsequence;
#X obj 221 42 receive trig;
#N canvas 573 374 450 409 arpsynth 0;
#X obj 82 32 inlet note;
#X obj 82 71 trigger bang bang float;
#X obj 149 102 random 50;
#X obj 217 102 mtof;
#X obj 149 133 * 7;
#X obj 149 164 + 30;
#X obj 277 134 / 4;
#X obj 277 165 + 3;
#X obj 217 213 pack 1 2;
#X obj 217 240 line~;
#X obj 217 269 osc~;
#X obj 82 305 *~;
#X obj 82 344 *~ 0.0165;
#X obj 82 383 outlet~;
#N canvas 0 0 450 300 denver 0;
#X obj 69 142 line~;
#X obj 69 65 del 12;
#X obj 69 166 *~;
#X obj 70 187 *~;
#X obj 70 211 outlet~;
#X obj 69 109 pack 1 2;
#X msg 69 85 0;
#X msg 119 64 1 2;
#X obj 69 42 t b b;
#X obj 160 18 inlet decay;
#X obj 69 19 inlet trig;
#X connect 0 0 2 0;
#X connect 0 0 2 1;
#X connect 1 0 6 0;
#X connect 2 0 3 0;
#X connect 2 0 3 1;
#X connect 3 0 4 0;
#X connect 5 0 0 0;
#X connect 6 0 5 0;
#X connect 7 0 0 0;
#X connect 8 0 1 0;
#X connect 8 1 7 0;
#X connect 9 0 5 1;
#X connect 10 0 8 0;
#X restore 82 213 pd denver;
#X connect 0 0 1 0;
#X connect 1 0 14 0;
#X connect 1 1 2 0;
#X connect 1 2 3 0;
#X connect 2 0 6 0;
#X connect 2 0 4 0;
#X connect 3 0 8 0;
#X connect 4 0 5 0;
#X connect 5 0 14 1;
#X connect 6 0 7 0;
#X connect 7 0 8 1;
#X connect 8 0 9 0;
#X connect 9 0 10 0;
#X connect 10 0 11 1;
#X connect 11 0 12 0;
#X connect 12 0 13 0;
#X connect 14 0 11 0;
#X restore 99 112 pd arpsynth;
#N canvas 821 179 640 583 3xdelay 0;
#X obj 242 94 inlet feedback;
#X obj 66 94 inlet~;
#X obj 66 355 outlet~;
#X obj 325 356 outlet~;
#X obj 121 94 inlet time;
#X obj 242 124 clip 0 0.9;
#X obj 121 166 delread~ \$0-zzzz 250;
#X obj 121 198 hip~ 20;
#X obj 121 251 lop~ 2000;
#X obj 121 283 *~ 0.6;
#X obj 143 323 +~;
#X obj 66 323 +~;
#X obj 143 355 delwrite~ \$0-zzzz 5000;
#X connect 0 0 5 0;
#X connect 1 0 3 0;
#X connect 1 0 11 0;
#X connect 1 0 10 1;
#X connect 4 0 6 0;
#X connect 5 0 9 1;
#X connect 6 0 7 0;
#X connect 7 0 8 0;
#X connect 8 0 9 0;
#X connect 9 0 11 1;
#X connect 9 0 10 0;
#X connect 10 0 12 0;
#X connect 11 0 2 0;
#X restore 99 252 pd 3xdelay;
#X connect 0 0 11 0;
#X connect 1 0 6 0;
#X connect 2 0 7 0;
#X connect 3 0 4 0;
#X connect 3 1 4 1;
#X connect 4 0 5 2;
#X connect 6 0 14 1;
#X connect 7 0 14 2;
#X connect 8 0 4 0;
#X connect 9 0 3 0;
#X connect 10 0 5 3;
#X connect 11 0 13 0;
#X connect 12 0 11 1;
#X connect 13 0 14 0;
#X connect 14 0 5 0;
#X connect 14 1 5 1;
#X restore 358 998 pd arppart;
#X obj 577 978 receive synthtime;
#X obj 706 978 receive drumtime;
#X text 656 943 Saw-Swoop (channel 6);
#N canvas 244 252 588 496 sawswoop 0;
#X obj 51 39 inlet synthtime;
#X obj 177 39 inlet drumtime;
#X obj 298 39 inlet chords;
#X obj 79 156 receive period;
#X obj 185 156 loadbang;
#X obj 114 319 trigger bang float;
#X obj 114 354 *;
#N canvas 1149 478 656 446 mixer-channel 0;
#X obj 80 42 inlet~ left;
#X obj 175 42 inlet~ right;
#X obj 293 66 inlet volume;
#X obj 411 138 inlet pan;
#X msg 293 97 \$1 20;
#X obj 293 128 line~;
#X obj 113 175 *~;
#X obj 202 172 *~;
#X obj 164 238 - 30;
#X obj 316 238 + 30;
#N canvas 1048 408 643 472 panner 0;
#X obj 61 54 inlet~ audio;
#X obj 282 56 inlet pan;
#X obj 282 89 + 90;
#X obj 282 122 / 180;
#X obj 282 166 trigger float float;
#X obj 393 209 swap 1;
#X obj 393 254 -;
#X obj 285 312 *~;
#X obj 285 359 outlet~ right;
#X obj 61 312 *~;
#X obj 61 361 outlet~ left;
#X connect 0 0 9 0;
#X connect 0 0 7 0;
#X connect 1 0 2 0;
#X connect 2 0 3 0;
#X connect 3 0 4 0;
#X connect 4 0 9 1;
#X connect 4 1 5 0;
#X connect 5 0 6 0;
#X connect 5 1 6 1;
#X connect 6 0 7 0;
#X connect 7 0 8 0;
#X connect 9 0 10 0;
#X restore 113 282 pd panner;
#N canvas 1048 408 643 472 panner 0;
#X obj 61 54 inlet~ audio;
#X obj 282 56 inlet pan;
#X obj 282 89 + 90;
#X obj 282 122 / 180;
#X obj 282 166 trigger float float;
#X obj 393 209 swap 1;
#X obj 393 254 -;
#X obj 285 312 *~;
#X obj 285 359 outlet~ right;
#X obj 61 312 *~;
#X obj 61 361 outlet~ left;
#X connect 0 0 9 0;
#X connect 0 0 7 0;
#X connect 1 0 2 0;
#X connect 2 0 3 0;
#X connect 3 0 4 0;
#X connect 4 0 9 1;
#X connect 4 1 5 0;
#X connect 5 0 6 0;
#X connect 5 1 6 1;
#X connect 6 0 7 0;
#X connect 7 0 8 0;
#X connect 9 0 10 0;
#X restore 265 284 pd panner;
#X obj 114 325 throw~ left;
#X obj 266 325 throw~ right;
#X connect 0 0 6 0;
#X connect 1 0 7 0;
#X connect 2 0 4 0;
#X connect 3 0 8 0;
#X connect 3 0 9 0;
#X connect 4 0 5 0;
#X connect 5 0 6 1;
#X connect 5 0 7 1;
#X connect 6 0 10 0;
#X connect 7 0 11 0;
#X connect 8 0 10 1;
#X connect 9 0 11 1;
#X connect 10 0 12 0;
#X connect 11 0 13 0;
#X restore 52 404 pd mixer-channel;
#X obj 79 191 * 3;
#N canvas 821 179 640 583 3xdelay 0;
#X obj 242 94 inlet feedback;
#X obj 66 94 inlet~;
#X obj 66 355 outlet~;
#X obj 325 356 outlet~;
#X obj 121 94 inlet time;
#X obj 242 124 clip 0 0.9;
#X obj 121 166 delread~ \$0-zzzz 250;
#X obj 121 198 hip~ 20;
#X obj 121 251 lop~ 2000;
#X obj 121 283 *~ 0.6;
#X obj 143 323 +~;
#X obj 66 323 +~;
#X obj 143 355 delwrite~ \$0-zzzz 5000;
#X connect 0 0 5 0;
#X connect 1 0 3 0;
#X connect 1 0 11 0;
#X connect 1 0 10 1;
#X connect 4 0 6 0;
#X connect 5 0 9 1;
#X connect 6 0 7 0;
#X connect 7 0 8 0;
#X connect 8 0 9 0;
#X connect 9 0 11 1;
#X connect 9 0 10 0;
#X connect 10 0 12 0;
#X connect 11 0 2 0;
#X restore 51 248 pd 3xdelay;
#X msg 185 191 0.6;
#X obj 75 284 receive ch6;
#X obj 157 284 receive m6;
#X obj 197 370 receive pan6;
#N canvas 375 238 819 440 sawsequence 0;
#X obj 266 217 float;
#X obj 333 216 float;
#X obj 397 216 float;
#X obj 202 269 float;
#X obj 267 269 float;
#X obj 334 269 float;
#X obj 399 266 float;
#X obj 204 217 float;
#X obj 249 388 outlet;
#X obj 54 19 inlet synthtime;
#X obj 259 19 inlet drumtime;
#X obj 491 19 inlet chords;
#X obj 491 50 unpack 1 2 3 4 5 6 7 8 9 10 11 12;
#X obj 144 123 random 8;
#X obj 144 149 select 0 1 2 3 4 5 6 7;
#X obj 54 50 mod 16;
#X obj 259 50 mod 64;
#X obj 259 81 select 56 60 63;
#X obj 54 81 select 0;
#X msg 249 320 \$1 1 30 0.6 250 200 100 4000 0.3;
#X msg 292 351 \$1 1 10 0.6 450 250 400 6000 0.3;
#X connect 0 0 19 0;
#X connect 1 0 19 0;
#X connect 2 0 19 0;
#X connect 3 0 20 0;
#X connect 4 0 20 0;
#X connect 5 0 20 0;
#X connect 6 0 20 0;
#X connect 7 0 19 0;
#X connect 9 0 15 0;
#X connect 11 0 12 0;
#X connect 12 2 7 1;
#X connect 12 3 0 1;
#X connect 12 4 1 1;
#X connect 12 5 2 1;
#X connect 12 6 3 1;
#X connect 12 7 4 1;
#X connect 12 8 5 1;
#X connect 12 9 6 1;
#X connect 13 0 14 0;
#X connect 14 0 7 0;
#X connect 14 1 0 0;
#X connect 14 2 1 0;
#X connect 14 3 2 0;
#X connect 14 4 3 0;
#X connect 14 5 4 0;
#X connect 14 6 5 0;
#X connect 14 7 6 0;
#X connect 15 0 18 0;
#X connect 16 0 17 0;
#X connect 17 0 13 0;
#X connect 17 1 13 0;
#X connect 17 2 13 0;
#X connect 18 0 13 0;
#X connect 19 0 8 0;
#X connect 20 0 8 0;
#X restore 51 73 pd sawsequence;
#N canvas 554 28 450 748 sawsynth 0;
#X obj 173 572 *~;
#X obj 173 606 outlet~;
#X obj 82 32 inlet;
#X obj 82 66 unpack 1 2 3 4 5 6 7 8 9;
#X obj 10 102 mtof;
#X obj 208 99 trigger bang bang;
#X obj 10 136 trigger float float float;
#X obj 10 195 pack 1 1;
#X obj 139 195 pack 1 1;
#X obj 291 147 pack 1 1;
#X obj 208 168 del 1;
#X obj 208 195 pack 0 1;
#X obj 291 292 line~;
#X obj 139 229 line~;
#X obj 139 263 +~;
#X obj 10 229 line~;
#X obj 72 220 +;
#X obj 11 292 phasor~;
#X obj 139 292 phasor~;
#X obj 94 342 bp~ 100 1;
#X obj 174 375 * -1;
#X obj 273 375 * 1;
#X obj 134 415 clip~ -0.9 0.9;
#X obj 173 468 *~;
#X obj 173 502 *~ 0.5;
#X obj 173 536 hip~ 50;
#X connect 0 0 1 0;
#X connect 2 0 3 0;
#X connect 3 0 4 0;
#X connect 3 0 5 0;
#X connect 3 1 16 0;
#X connect 3 2 19 2;
#X connect 3 3 20 0;
#X connect 3 3 21 0;
#X connect 3 4 7 1;
#X connect 3 5 8 1;
#X connect 3 6 10 1;
#X connect 3 6 9 1;
#X connect 3 7 11 1;
#X connect 3 8 0 1;
#X connect 4 0 6 0;
#X connect 5 0 10 0;
#X connect 5 1 9 0;
#X connect 6 0 7 0;
#X connect 6 1 16 1;
#X connect 6 2 8 0;
#X connect 7 0 15 0;
#X connect 8 0 13 0;
#X connect 9 0 12 0;
#X connect 10 0 11 0;
#X connect 11 0 12 0;
#X connect 12 0 23 0;
#X connect 13 0 14 0;
#X connect 14 0 18 0;
#X connect 15 0 17 0;
#X connect 16 0 19 1;
#X connect 17 0 19 0;
#X connect 19 0 22 0;
#X connect 20 0 22 1;
#X connect 21 0 22 2;
#X connect 22 0 23 1;
#X connect 23 0 24 0;
#X connect 24 0 25 0;
#X connect 25 0 0 0;
#X restore 51 108 pd sawsynth;
#X connect 0 0 14 0;
#X connect 1 0 14 1;
#X connect 2 0 14 2;
#X connect 3 0 8 0;
#X connect 4 0 10 0;
#X connect 5 0 6 0;
#X connect 5 1 6 1;
#X connect 6 0 7 2;
#X connect 8 0 9 1;
#X connect 9 0 7 0;
#X connect 9 1 7 1;
#X connect 10 0 9 2;
#X connect 11 0 6 0;
#X connect 12 0 5 0;
#X connect 13 0 7 3;
#X connect 14 0 15 0;
#X connect 15 0 9 0;
#X restore 687 1009 pd sawswoop;
#X obj 825 978 receive chords;
#X msg 543 1418 holder;
#X text 1104 936 Strings (channel 7);
#N canvas 1040 186 450 295 strings 0;
#N canvas 960 0 944 994 hollowstrings 0;
#X obj 82 125 receive chords;
#X obj 331 51 receive synthtime;
#X obj 82 154 unpack 1 2 3 4 5 6 7 8 9 10 11 12;
#X obj 331 80 trigger float bang bang bang bang bang;
#X obj 331 109 mod 16;
#X obj 331 154 select 0 1 2 3 4 5 6 7 12;
#X obj 443 239 random 100;
#X obj 443 268 / 100;
#X obj 443 297 * 0.001;
#X obj 443 326 + 0.369;
#X obj 525 239 random 100;
#X obj 525 268 / 100;
#X obj 608 239 random 100;
#X obj 608 268 / 100;
#X obj 689 239 random 100;
#X obj 689 268 / 100;
#X obj 525 297 * 0.02;
#X obj 525 326 + 0.69;
#X obj 608 326 + 50;
#X obj 608 297 * 100;
#X obj 689 297 * 800;
#X obj 689 326 + 120;
#X obj 215 268 float;
#X obj 263 268 float;
#X obj 308 268 float;
#X obj 356 268 float;
#X obj 283 326 - 12;
#X obj 283 392 pack float float float float float;
#X obj 283 502 spigot;
#X obj 316 471 random 2;
#X msg 283 421 \$1 0.298 0.2 0.2 \$2 \$3 \$4 \$5 0.6;
#N canvas 892 269 710 631 cosynth 0;
#X obj 130 27 inlet parameters;
#X obj 130 111 mtof;
#X obj 395 118 * 4;
#X obj 472 116 * 8;
#X obj 43 230 trigger bang bang;
#X obj 177 230 trigger float float;
#X obj 330 230 osc~;
#X obj 397 232 osc~;
#X obj 475 230 osc~;
#X obj 397 161 *;
#X obj 475 161 *;
#X obj 43 287 pack 1 1;
#X obj 330 287 *~ 0.09;
#X obj 396 287 *~ 0.05;
#X obj 474 287 *~ 0.02;
#X obj 331 358 clip~ -0.1 0.1;
#X obj 142 356 del 1;
#X obj 142 398 pack 0 1;
#X obj 142 440 line;
#X obj 142 476 *~;
#X obj 142 518 *~;
#X obj 141 552 outlet~;
#X obj 130 69 unpack 1 2 3 4 5 6 7 8 9;
#X connect 0 0 22 0;
#X connect 1 0 4 0;
#X connect 1 0 6 0;
#X connect 1 0 9 0;
#X connect 1 0 10 0;
#X connect 2 0 9 1;
#X connect 3 0 10 1;
#X connect 4 0 11 0;
#X connect 4 1 16 0;
#X connect 5 0 11 1;
#X connect 5 1 16 1;
#X connect 6 0 12 0;
#X connect 7 0 13 0;
#X connect 8 0 14 0;
#X connect 9 0 7 0;
#X connect 10 0 8 0;
#X connect 11 0 18 0;
#X connect 12 0 15 0;
#X connect 13 0 15 0;
#X connect 14 0 15 0;
#X connect 15 0 19 1;
#X connect 16 0 17 0;
#X connect 17 0 18 0;
#X connect 18 0 19 0;
#X connect 19 0 20 0;
#X connect 20 0 21 0;
#X connect 22 0 1 0;
#X connect 22 1 12 1;
#X connect 22 2 13 1;
#X connect 22 3 14 1;
#X connect 22 4 2 0;
#X connect 22 5 3 0;
#X connect 22 6 5 0;
#X connect 22 7 17 1;
#X connect 22 8 20 1;
#X restore 283 531 pd cosynth;
#X obj 283 560 hip~ 300;
#N canvas 821 179 640 583 filterdelay 0;
#X obj 121 91 inlet tempo;
#X obj 242 92 inlet feedback;
#X obj 365 92 inlet resonance;
#X obj 23 92 inlet~;
#X obj 136 130 phasor~ 0.212;
#X obj 136 167 lop~ 0.2;
#X obj 216 169 loadbang;
#X msg 216 202 0.3;
#X obj 136 204 *~ 900;
#X obj 136 241 +~ 200;
#X obj 102 282 vcf~ 100 0.7;
#X obj 68 356 outlet~;
#X obj 171 355 outlet~;
#N canvas 1021 517 450 300 delay 0;
#X obj 78 58 inlet~;
#X obj 161 58 inlet time;
#X obj 277 58 inlet feedback;
#X obj 277 92 clip 0 0.9;
#X obj 161 128 delread~ \$0-zzzz 250;
#X obj 161 157 hip~ 20;
#X obj 160 186 lop~ 2000;
#X obj 161 213 *~ 0.6;
#X obj 105 264 +~;
#X obj 202 264 +~;
#X obj 105 296 outlet~;
#X obj 201 296 delwrite~ \$0-zzzz 5000;
#X obj 364 296 outlet~;
#X connect 0 0 8 0;
#X connect 0 0 9 1;
#X connect 0 0 12 0;
#X connect 1 0 4 0;
#X connect 2 0 3 0;
#X connect 3 0 7 1;
#X connect 4 0 5 0;
#X connect 5 0 6 0;
#X connect 6 0 7 0;
#X connect 7 0 8 1;
#X connect 7 0 9 0;
#X connect 8 0 10 0;
#X connect 9 0 11 0;
#X restore 99 319 pd delay;
#X connect 0 0 13 1;
#X connect 1 0 13 2;
#X connect 2 0 10 2;
#X connect 3 0 10 0;
#X connect 4 0 5 0;
#X connect 5 0 8 0;
#X connect 6 0 7 0;
#X connect 7 0 10 2;
#X connect 8 0 9 0;
#X connect 9 0 10 1;
#X connect 10 0 13 0;
#X connect 13 0 11 0;
#X connect 13 1 12 0;
#X restore 282 652 pd filterdelay;
#X obj 429 598 loadbang;
#X msg 404 626 0.2;
#X msg 466 626 4;
#X obj 309 627 * 5;
#X obj 309 598 receive \$0-period;
#X obj 282 681 outlet~;
#X obj 364 681 outlet~;
#X connect 0 0 2 0;
#X connect 1 0 3 0;
#X connect 2 6 22 1;
#X connect 2 7 23 1;
#X connect 2 8 24 1;
#X connect 2 9 25 1;
#X connect 3 0 4 0;
#X connect 3 1 29 0;
#X connect 3 2 6 0;
#X connect 3 3 10 0;
#X connect 3 4 12 0;
#X connect 3 5 14 0;
#X connect 4 0 5 0;
#X connect 5 0 23 0;
#X connect 5 1 24 0;
#X connect 5 2 23 0;
#X connect 5 3 24 0;
#X connect 5 5 25 0;
#X connect 5 7 25 0;
#X connect 5 8 22 0;
#X connect 6 0 7 0;
#X connect 7 0 8 0;
#X connect 8 0 9 0;
#X connect 9 0 27 1;
#X connect 10 0 11 0;
#X connect 11 0 16 0;
#X connect 12 0 13 0;
#X connect 13 0 19 0;
#X connect 14 0 15 0;
#X connect 15 0 20 0;
#X connect 16 0 17 0;
#X connect 17 0 27 2;
#X connect 18 0 27 3;
#X connect 19 0 18 0;
#X connect 20 0 21 0;
#X connect 21 0 27 4;
#X connect 22 0 26 0;
#X connect 23 0 26 0;
#X connect 24 0 26 0;
#X connect 25 0 26 0;
#X connect 26 0 27 0;
#X connect 27 0 30 0;
#X connect 28 0 31 0;
#X connect 29 0 28 1;
#X connect 30 0 28 0;
#X connect 31 0 32 0;
#X connect 32 0 33 0;
#X connect 33 0 39 0;
#X connect 33 1 40 0;
#X connect 34 0 35 0;
#X connect 34 0 36 0;
#X connect 35 0 33 2;
#X connect 36 0 33 3;
#X connect 37 0 33 1;
#X connect 38 0 37 0;
#X restore 113 49 pd hollowstrings;
#X obj 175 133 trigger bang float;
#X obj 175 168 *;
#N canvas 1149 478 656 446 mixer-channel 0;
#X obj 80 42 inlet~ left;
#X obj 175 42 inlet~ right;
#X obj 293 66 inlet volume;
#X obj 411 138 inlet pan;
#X msg 293 97 \$1 20;
#X obj 293 128 line~;
#X obj 113 175 *~;
#X obj 202 172 *~;
#X obj 164 238 - 30;
#X obj 316 238 + 30;
#N canvas 1048 408 643 472 panner 0;
#X obj 61 54 inlet~ audio;
#X obj 282 56 inlet pan;
#X obj 282 89 + 90;
#X obj 282 122 / 180;
#X obj 282 166 trigger float float;
#X obj 393 209 swap 1;
#X obj 393 254 -;
#X obj 285 312 *~;
#X obj 285 359 outlet~ right;
#X obj 61 312 *~;
#X obj 61 361 outlet~ left;
#X connect 0 0 9 0;
#X connect 0 0 7 0;
#X connect 1 0 2 0;
#X connect 2 0 3 0;
#X connect 3 0 4 0;
#X connect 4 0 9 1;
#X connect 4 1 5 0;
#X connect 5 0 6 0;
#X connect 5 1 6 1;
#X connect 6 0 7 0;
#X connect 7 0 8 0;
#X connect 9 0 10 0;
#X restore 113 282 pd panner;
#N canvas 1048 408 643 472 panner 0;
#X obj 61 54 inlet~ audio;
#X obj 282 56 inlet pan;
#X obj 282 89 + 90;
#X obj 282 122 / 180;
#X obj 282 166 trigger float float;
#X obj 393 209 swap 1;
#X obj 393 254 -;
#X obj 285 312 *~;
#X obj 285 359 outlet~ right;
#X obj 61 312 *~;
#X obj 61 361 outlet~ left;
#X connect 0 0 9 0;
#X connect 0 0 7 0;
#X connect 1 0 2 0;
#X connect 2 0 3 0;
#X connect 3 0 4 0;
#X connect 4 0 9 1;
#X connect 4 1 5 0;
#X connect 5 0 6 0;
#X connect 5 1 6 1;
#X connect 6 0 7 0;
#X connect 7 0 8 0;
#X connect 9 0 10 0;
#X restore 265 284 pd panner;
#X obj 114 325 throw~ left;
#X obj 266 325 throw~ right;
#X connect 0 0 6 0;
#X connect 1 0 7 0;
#X connect 2 0 4 0;
#X connect 3 0 8 0;
#X connect 3 0 9 0;
#X connect 4 0 5 0;
#X connect 5 0 6 1;
#X connect 5 0 7 1;
#X connect 6 0 10 0;
#X connect 7 0 11 0;
#X connect 8 0 10 1;
#X connect 9 0 11 1;
#X connect 10 0 12 0;
#X connect 11 0 13 0;
#X restore 113 218 pd mixer-channel;
#X obj 136 98 receive ch7;
#X obj 218 98 receive m7;
#X obj 258 184 receive pan7;
#X connect 0 0 3 0;
#X connect 0 1 3 1;
#X connect 1 0 2 0;
#X connect 1 1 2 1;
#X connect 2 0 3 2;
#X connect 4 0 2 0;
#X connect 5 0 1 0;
#X connect 6 0 3 3;
#X restore 1109 975 pd strings;
#X obj 1483 50 key;
#X obj 1558 49 keyup;
#X floatatom 1514 88 5 0 0 0 - - -;
#X floatatom 1601 84 5 0 0 0 - - -;
#X obj 1413 140 mtof;
#X obj 1483 144 bng 15 250 50 0 empty empty empty 17 7 0 10 -262144
-1 -1;
#X obj 1558 146 bng 15 250 50 0 empty empty empty 17 7 0 10 -262144
-1 -1;
#X msg 1483 196 1;
#X obj 1413 287 osc~;
#X msg 1558 197 0;
#X obj 1633 197 nbx 5 14 0 1000 0 0 empty empty empty 0 -8 0 10 -203904
-1 -1 0 256;
#X obj 1483 324 line~;
#X obj 1413 459 dac~;
#X text 1415 21 ASCII Keyboard Input;
#X text 1718 23 MIDI Keyboard Input;
#X obj 1716 51 notein 1;
#X obj 1716 94 mtof;
#X obj 1716 138 osc~;
#X obj 1761 166 / 127;
#X obj 1761 219 pack 0 50;
#X obj 1836 187 nbx 5 14 0 1e+037 0 0 empty empty empty 0 -8 0 10 -203904
-1 -1 0 256;
#X obj 1761 269 line~;
#X obj 1413 377 *~;
#X obj 1716 330 *~;
#X obj 1412 421 *~ 0.3;
#X obj 1716 419 dac~;
#X obj 1715 381 *~ 0.3;
#X obj 1579 239 / 1000;
#X obj 1483 274 pack 0 1;
#N canvas 440 101 654 454 keyboardChords 0;
#X obj -2992 24 key;
#X obj -2917 24 keyup;
#X floatatom -2961 63 5 0 0 0 - - -;
#X floatatom -2874 63 5 0 0 0 - - -;
#X obj -2992 113 bng 15 250 50 0 empty empty empty 17 7 0 10 -262144
-1 -1;
#X obj -2917 113 bng 15 250 50 0 empty empty empty 17 7 0 10 -262144
-1 -1;
#X msg -2992 170 1;
#X msg -2917 170 0;
#X obj -2842 170 nbx 5 14 0 1000 0 0 empty empty empty 0 -8 0 10 -203904
-1 -1 0 256;
#X obj -2896 213 / 1000;
#X obj -2992 248 pack 0 1;
#X obj -2992 294 outlet lineout;
#N canvas 486 168 948 512 generateChordFromSeed 0;
#X obj 292 4 inlet seed;
#X msg 640 378 \$1 \$2 \$3 \$4 \$5 \$6 \$7 \$8;
#X obj 73 365 pack 1 2 3 4 5 6 7 8;
#X obj 799 35 receive scoretime;
#X obj 799 64 mod 128;
#X obj 799 97 select 0 32 64 96;
#X obj 222 447 print_long;
#X obj 442 446 print;
#X obj 104 125 - 2;
#X obj 89 155 +;
#X obj 89 302 int;
#X obj 136 302 int;
#X obj 322 306 int;
#X obj 359 308 int;
#X obj 406 308 int;
#X obj 454 308 int;
#X obj 501 308 int;
#X obj 136 258 +;
#X obj 345 163 +;
#X obj 408 163 +;
#X obj 477 163 +;
#X obj 541 164 +;
#X obj 605 165 +;
#X obj 285 64 trigger bang bang bang bang bang bang bang;
#X obj 191 191 * -1;
#X floatatom 265 168 5 0 0 0 - - -;
#X floatatom 124 190 5 0 0 0 - - -;
#X floatatom 136 149 5 0 0 0 - - -;
#X obj 104 100 random 5;
#X obj 257 104 random 3;
#X obj 257 132 + 4;
#X obj 192 104 random 2;
#X obj 230 193 * 1;
#X floatatom 185 255 5 0 0 0 - - -;
#X floatatom 236 253 5 0 0 0 - - -;
#X floatatom 286 202 5 0 0 0 - - -;
#X obj 192 131 moses 1;
#X obj 360 105 random 9;
#X obj 423 105 random 13;
#X obj 492 105 random 15;
#X obj 620 107 random 25;
#X obj 556 106 random 21;
#X obj 360 133 - 4;
#X obj 423 133 - 6;
#X obj 492 133 - 7;
#X obj 557 134 - 10;
#X obj 620 135 - 12;
#X obj 756 446 outlet chordList;
#X obj 419 347 clip -127 127;
#X connect 0 0 2 0;
#X connect 0 0 9 0;
#X connect 0 0 23 0;
#X connect 0 0 17 0;
#X connect 0 0 18 0;
#X connect 0 0 19 0;
#X connect 0 0 20 0;
#X connect 0 0 21 0;
#X connect 0 0 22 0;
#X connect 1 0 6 0;
#X connect 1 0 7 0;
#X connect 1 0 47 0;
#X connect 2 0 1 0;
#X connect 3 0 4 0;
#X connect 4 0 5 0;
#X connect 5 0 1 0;
#X connect 5 1 1 0;
#X connect 5 2 1 0;
#X connect 5 3 1 0;
#X connect 8 0 9 1;
#X connect 8 0 27 0;
#X connect 9 0 10 0;
#X connect 9 0 26 0;
#X connect 10 0 2 1;
#X connect 11 0 2 2;
#X connect 12 0 2 3;
#X connect 13 0 2 4;
#X connect 14 0 2 5;
#X connect 15 0 2 6;
#X connect 16 0 2 7;
#X connect 16 0 48 0;
#X connect 17 0 11 0;
#X connect 18 0 12 0;
#X connect 19 0 13 0;
#X connect 20 0 14 0;
#X connect 21 0 15 0;
#X connect 22 0 16 0;
#X connect 23 0 28 0;
#X connect 23 1 29 0;
#X connect 23 1 31 0;
#X connect 23 2 37 0;
#X connect 23 3 38 0;
#X connect 23 4 39 0;
#X connect 23 5 41 0;
#X connect 23 6 40 0;
#X connect 24 0 17 1;
#X connect 24 0 33 0;
#X connect 28 0 8 0;
#X connect 29 0 30 0;
#X connect 30 0 25 0;
#X connect 30 0 32 0;
#X connect 31 0 35 0;
#X connect 31 0 36 0;
#X connect 32 0 17 1;
#X connect 32 0 34 0;
#X connect 37 0 42 0;
#X connect 38 0 43 0;
#X connect 39 0 44 0;
#X connect 40 0 46 0;
#X connect 41 0 45 0;
#X connect 42 0 18 1;
#X connect 43 0 19 1;
#X connect 44 0 20 1;
#X connect 45 0 21 1;
#X connect 46 0 22 1;
#X connect 48 0 2 7;
#X restore -3147 113 pd generateChordFromSeed;
#X obj -3147 294 outlet chords;
#X connect 0 0 2 0;
#X connect 0 0 4 0;
#X connect 0 0 12 0;
#X connect 1 0 3 0;
#X connect 1 0 5 0;
#X connect 4 0 6 0;
#X connect 5 0 7 0;
#X connect 6 0 10 0;
#X connect 7 0 10 0;
#X connect 8 0 9 0;
#X connect 9 0 10 1;
#X connect 10 0 11 0;
#X connect 12 0 13 0;
#X restore 1549 536 pd keyboardChords;
#X obj 1549 585 send chords;
#X obj 1648 585 send line;
#X connect 0 0 1 0;
#X connect 1 0 10 0;
#X connect 1 1 3 0;
#X connect 2 0 3 0;
#X connect 3 0 4 0;
#X connect 3 0 10 1;
#X connect 5 0 10 2;
#X connect 10 0 6 0;
#X connect 10 1 7 0;
#X connect 10 2 8 0;
#X connect 10 3 9 0;
#X connect 13 0 16 0;
#X connect 14 0 15 0;
#X connect 15 0 16 0;
#X connect 15 1 16 1;
#X connect 16 0 17 0;
#X connect 21 0 22 0;
#X connect 22 0 23 0;
#X connect 23 0 24 0;
#X connect 23 1 25 0;
#X connect 23 2 27 0;
#X connect 23 3 24 0;
#X connect 24 0 26 0;
#X connect 25 0 26 0;
#X connect 27 0 26 0;
#X connect 28 0 33 0;
#X connect 29 0 31 0;
#X connect 29 1 31 1;
#X connect 31 0 30 2;
#X connect 32 0 30 3;
#X connect 33 0 30 0;
#X connect 33 1 30 1;
#X connect 63 0 31 0;
#X connect 64 0 29 0;
#X connect 68 0 75 0;
#X connect 68 0 77 0;
#X connect 69 0 73 0;
#X connect 70 0 72 0;
#X connect 71 0 74 3;
#X connect 72 0 73 0;
#X connect 72 1 73 1;
#X connect 73 0 74 2;
#X connect 75 0 76 0;
#X connect 76 0 74 0;
#X connect 77 0 78 0;
#X connect 78 0 79 0;
#X connect 79 0 74 1;
#X connect 81 0 93 0;
#X connect 82 0 93 1;
#X connect 83 0 87 0;
#X connect 84 0 86 0;
#X connect 85 0 88 3;
#X connect 86 0 87 0;
#X connect 86 1 87 1;
#X connect 87 0 88 2;
#X connect 89 0 92 0;
#X connect 90 0 91 0;
#X connect 91 0 95 2;
#X connect 92 0 95 1;
#X connect 93 0 94 0;
#X connect 94 0 95 0;
#X connect 95 0 88 0;
#X connect 95 1 88 1;
#X connect 98 0 100 0;
#X connect 102 0 103 0;
#X connect 104 0 107 0;
#X connect 105 0 107 1;
#X connect 108 0 107 2;
#X connect 112 0 114 0;
#X connect 112 0 116 0;
#X connect 112 0 117 0;
#X connect 113 0 115 0;
#X connect 113 0 118 0;
#X connect 116 0 120 0;
#X connect 117 0 119 0;
#X connect 118 0 121 0;
#X connect 119 0 140 0;
#X connect 120 0 134 0;
#X connect 121 0 140 0;
#X connect 122 0 139 0;
#X connect 123 0 134 1;
#X connect 127 0 128 0;
#X connect 127 1 130 0;
#X connect 128 0 129 0;
#X connect 129 0 135 0;
#X connect 130 0 131 0;
#X connect 131 0 133 0;
#X connect 132 0 131 1;
#X connect 133 0 135 1;
#X connect 135 0 138 0;
#X connect 136 0 124 0;
#X connect 136 0 124 1;
#X connect 138 0 137 0;
#X connect 138 0 137 1;
#X connect 139 0 140 1;
#X connect 140 0 123 0;
#X connect 141 0 142 0;
#X connect 141 1 143 0;
