#N canvas 960 0 944 994 10;
#X obj 96 67 key;
#X obj 171 66 keyup;
#X floatatom 127 105 5 0 0 0 - - -;
#X floatatom 214 101 5 0 0 0 - - -;
#X obj 26 157 mtof;
#X obj 96 161 bng 15 250 50 0 empty empty empty 17 7 0 10 -262144 -1
-1;
#X obj 171 163 bng 15 250 50 0 empty empty empty 17 7 0 10 -262144
-1 -1;
#X msg 96 213 1;
#X obj 26 304 osc~;
#X msg 171 214 0;
#X obj 246 214 nbx 5 14 0 1000 0 0 empty empty empty 0 -8 0 10 -203904
-1 -1 598 256;
#X obj 96 341 line~;
#X obj 26 476 dac~;
#X text 28 38 ASCII Keyboard Input;
#X text 425 38 MIDI Keyboard Input;
#X obj 423 66 notein 1;
#X obj 423 109 mtof;
#X obj 423 153 osc~;
#X obj 468 181 / 127;
#X obj 468 234 pack 0 50;
#X obj 543 202 nbx 5 14 0 1e+037 0 0 empty empty empty 0 -8 0 10 -203904
-1 -1 0 256;
#X obj 468 284 line~;
#X obj 26 394 *~;
#X obj 423 345 *~;
#X obj 25 438 *~ 0.3;
#X obj 423 434 dac~;
#X obj 422 396 *~ 0.3;
#X obj 192 256 / 1000;
#X obj 96 291 pack 0 1;
#X connect 0 0 2 0;
#X connect 0 0 4 0;
#X connect 0 0 5 0;
#X connect 1 0 3 0;
#X connect 1 0 6 0;
#X connect 4 0 8 0;
#X connect 5 0 7 0;
#X connect 6 0 9 0;
#X connect 7 0 28 0;
#X connect 8 0 22 0;
#X connect 9 0 28 0;
#X connect 10 0 27 0;
#X connect 11 0 22 1;
#X connect 15 0 16 0;
#X connect 15 1 18 0;
#X connect 16 0 17 0;
#X connect 17 0 23 0;
#X connect 18 0 19 0;
#X connect 19 0 21 0;
#X connect 20 0 19 1;
#X connect 21 0 23 1;
#X connect 22 0 24 0;
#X connect 23 0 26 0;
#X connect 24 0 12 0;
#X connect 24 0 12 1;
#X connect 26 0 25 0;
#X connect 26 0 25 1;
#X connect 27 0 28 1;
#X connect 28 0 11 0;
