#N canvas 960 0 944 994 10;
#X obj 37 44 osc~ 440;
#X obj 37 80 *~ 0.5;
#X obj 37 115 +~ 0.5;
#X obj 36 154 tabwrite~ waveform;
#X obj 139 74 tgl 15 0 empty empty empty 17 7 0 10 -262144 -1 -1 0
1;
#X obj 139 106 metro 100;
#N canvas 0 0 450 300 (subpatch) 0;
#X array waveform 100 float 3;
#A 0 0.5 0.5 0.5 0.5 0.5 0.5 0.5 0.5 0.5 0.5 0.5 0.5 0.5 0.5 0.5 0.5
0.5 0.5 0.5 0.5 0.5 0.5 0.5 0.5 0.5 0.5 0.5 0.5 0.5 0.5 0.5 0.5 0.5
0.5 0.5 0.5 0.5 0.5 0.5 0.5 0.5 0.5 0.5 0.5 0.5 0.5 0.5 0.5 0.5 0.5
0.5 0.5 0.5 0.5 0.5 0.5 0.5 0.5 0.5 0.5 0.5 0.5 0.5 0.5 0.5 0.5 0.5
0.5 0.5 0.5 0.5 0.5 0.5 0.5 0.5 0.5 0.5 0.5 0.5 0.5 0.5 0.5 0.5 0.5
0.5 0.5 0.5 0.5 0.5 0.5 0.5 0.5 0.5 0.5 0.5 0.5 0.5 0.5 0.5 0.5;
#X coords 0 1 99 -1 200 140 1;
#X restore 36 201 graph;
#X obj 338 42 tgl 15 0 empty empty empty 17 7 0 10 -262144 -1 -1 0
1;
#X obj 338 75 metro 300;
#X obj 338 110 random 24;
#X obj 338 145 + 48;
#X floatatom 366 177 5 0 0 0 - - -;
#X obj 338 211 osc~;
#X obj 338 246 dac~;
#X obj 517 39 nbx 5 14 0 127 0 0 empty empty empty 0 -8 0 10 -262144
-1 -1 101 256;
#X msg 554 72 50;
#X msg 602 70 55;
#X msg 648 68 57;
#X msg 699 71 60;
#X obj 517 104 mtof;
#X obj 517 152 osc~;
#X obj 517 218 dac~;
#X obj 45 411 bng 15 250 50 0 empty empty empty 17 7 0 10 -262144 -1
-1;
#X obj 45 447 metro 300;
#X obj 45 485 random 24;
#X obj 45 523 + 48;
#X obj 45 561 mtof;
#X obj 45 599 osc~;
#X obj 45 637 *~ 0.3;
#X obj 46 694 dac~;
#X text 46 389 Random Note Generator;
#X obj 516 186 *~ 0.3;
#X text 515 13 Play Notes (click on numbers or pick note from number)
;
#X text 304 388 Random Sine Wave with Controls;
#X obj 308 414 bng 15 250 50 0 empty empty empty 17 7 0 10 -262144
-1 -1;
#X obj 379 451 hsl 128 15 0 127 0 0 empty empty empty -2 -8 0 10 -262144
-1 -1 3600 1;
#X obj 308 489 metro 200;
#X obj 308 523 trigger bang bang;
#X obj 306 551 random 101;
#X obj 307 582 / 100;
#X obj 407 559 random 24;
#X obj 407 597 + 48;
#X obj 407 635 mtof;
#X obj 407 673 osc~;
#X obj 358 722 *~;
#X obj 359 785 dac~;
#X obj 358 753 *~ 0.3;
#X connect 1 0 2 0;
#X connect 2 0 3 0;
#X connect 4 0 5 0;
#X connect 5 0 3 0;
#X connect 7 0 8 0;
#X connect 8 0 9 0;
#X connect 9 0 10 0;
#X connect 10 0 11 0;
#X connect 10 0 12 0;
#X connect 14 0 19 0;
#X connect 15 0 19 0;
#X connect 16 0 19 0;
#X connect 17 0 19 0;
#X connect 18 0 19 0;
#X connect 19 0 20 0;
#X connect 20 0 31 0;
#X connect 22 0 23 0;
#X connect 23 0 24 0;
#X connect 24 0 25 0;
#X connect 25 0 26 0;
#X connect 26 0 27 0;
#X connect 27 0 28 0;
#X connect 31 0 21 0;
#X connect 31 0 21 1;
#X connect 34 0 36 0;
#X connect 35 0 36 1;
#X connect 36 0 37 0;
#X connect 37 0 38 0;
#X connect 37 1 40 0;
#X connect 38 0 39 0;
#X connect 39 0 44 0;
#X connect 40 0 41 0;
#X connect 41 0 42 0;
#X connect 42 0 43 0;
#X connect 43 0 44 1;
#X connect 44 0 46 0;
#X connect 46 0 45 0;
#X connect 46 0 45 1;
