#N canvas 960 0 944 994 10;
#X obj 110 233 receive start-stop;
#X obj 110 273 trigger float bang;
#X obj 260 273 loadbang;
#X msg 260 313 250;
#X obj 293 364 send period;
#X obj 337 315 receive zero;
#X obj 112 472 send trig;
#X obj 201 472 send scoretime;
#X obj 313 472 send drumtime;
#X obj 419 472 send synthtime;
#N canvas 978 139 762 564 masterclock 0;
#X obj 70 61 inlet start-stop;
#X obj 207 61 loadbang;
#X obj 403 64 inlet zero;
#X obj 207 127 metro 250;
#X obj 291 94 inlet period;
#X obj 403 99 trigger bang;
#X msg 403 134 0;
#X msg 207 94 1;
#X obj 207 177 trigger bang bang;
#X obj 207 296 outlet trig;
#X obj 346 214 float 0;
#X obj 346 257 trigger float float;
#X obj 485 257 trigger float float;
#X obj 485 214 + 1;
#X obj 346 297 outlet scoretime;
#X obj 485 295 outlet drumtime;
#X obj 596 295 / 2;
#X obj 596 333 outlet synthtime;
#X connect 0 0 3 0;
#X connect 1 0 7 0;
#X connect 2 0 5 0;
#X connect 3 0 8 0;
#X connect 4 0 3 1;
#X connect 5 0 6 0;
#X connect 6 0 10 1;
#X connect 7 0 3 0;
#X connect 8 0 9 0;
#X connect 8 1 10 0;
#X connect 10 0 11 0;
#X connect 11 0 14 0;
#X connect 11 1 13 0;
#X connect 12 0 15 0;
#X connect 12 1 16 0;
#X connect 13 0 10 1;
#X connect 13 0 12 0;
#X connect 16 0 17 0;
#X restore 202 414 pd masterclock;
#X text 211 205 Master Clock;
#X text 755 203 Master Mixer;
#X obj 671 239 receive mast;
#X obj 792 239 receive mastmute;
#X obj 792 272 trigger bang float;
#X obj 792 305 *;
#N canvas 1090 191 731 601 mixer-output 0;
#X obj 110 63 catch~ left;
#X obj 217 63 catch~ right;
#X obj 350 22 inlet volume;
#X obj 110 112 *~;
#X obj 217 112 *~;
#X obj 110 161 dac~ 1 2;
#X msg 350 51 \$1 20;
#X obj 350 80 line~;
#X connect 0 0 3 0;
#X connect 1 0 4 0;
#X connect 2 0 6 0;
#X connect 3 0 5 0;
#X connect 4 0 5 1;
#X connect 6 0 7 0;
#X connect 7 0 3 1;
#X connect 7 0 4 1;
#X restore 792 340 pd mixer-output;
#X text 721 384 Mixer Channel;
#N canvas 1149 478 656 446 mixer-channel 0;
#X obj 80 42 inlet~ left;
#X obj 175 42 inlet~ right;
#X obj 293 66 inlet volume;
#X obj 411 138 inlet pan;
#X msg 293 97 \$1 20;
#X obj 293 128 line~;
#X obj 113 175 *~;
#X obj 202 172 *~;
#X obj 164 238 - 30;
#X obj 316 238 + 30;
#N canvas 1048 408 643 472 panner 0;
#X obj 61 54 inlet~ audio;
#X obj 282 56 inlet pan;
#X obj 282 89 + 90;
#X obj 282 122 / 180;
#X obj 282 166 trigger float float;
#X obj 393 209 swap 1;
#X obj 393 254 -;
#X obj 285 312 *~;
#X obj 285 359 outlet~ right;
#X obj 61 312 *~;
#X obj 61 361 outlet~ left;
#X connect 0 0 9 0;
#X connect 0 0 7 0;
#X connect 1 0 2 0;
#X connect 2 0 3 0;
#X connect 3 0 4 0;
#X connect 4 0 9 1;
#X connect 4 1 5 0;
#X connect 5 0 6 0;
#X connect 5 1 6 1;
#X connect 6 0 7 0;
#X connect 7 0 8 0;
#X connect 9 0 10 0;
#X restore 113 282 pd panner;
#N canvas 1048 408 643 472 panner 0;
#X obj 61 54 inlet~ audio;
#X obj 282 56 inlet pan;
#X obj 282 89 + 90;
#X obj 282 122 / 180;
#X obj 282 166 trigger float float;
#X obj 393 209 swap 1;
#X obj 393 254 -;
#X obj 285 312 *~;
#X obj 285 359 outlet~ right;
#X obj 61 312 *~;
#X obj 61 361 outlet~ left;
#X connect 0 0 9 0;
#X connect 0 0 7 0;
#X connect 1 0 2 0;
#X connect 2 0 3 0;
#X connect 3 0 4 0;
#X connect 4 0 9 1;
#X connect 4 1 5 0;
#X connect 5 0 6 0;
#X connect 5 1 6 1;
#X connect 6 0 7 0;
#X connect 7 0 8 0;
#X connect 9 0 10 0;
#X restore 265 284 pd panner;
#X obj 114 325 throw~ left;
#X obj 266 325 throw~ right;
#X connect 0 0 6 0;
#X connect 1 0 7 0;
#X connect 2 0 4 0;
#X connect 3 0 8 0;
#X connect 3 0 9 0;
#X connect 4 0 5 0;
#X connect 5 0 6 1;
#X connect 5 0 7 1;
#X connect 6 0 10 0;
#X connect 7 0 11 0;
#X connect 8 0 10 1;
#X connect 9 0 11 1;
#X connect 10 0 12 0;
#X connect 11 0 13 0;
#X restore 675 466 pd mixer-channel;
#X text 194 541 Score;
#X obj 115 585 receive scoretime;
#X obj 115 623 mod 128;
#X obj 115 656 select 0 32 64 96;
#X msg 115 738 52 48 64 67 76 79 81 83;
#X msg 151 712 50 48 64 67 76 79 81 86;
#X obj 153 783 send chords;
#X msg 174 685 50 52 66 69 76 79 83 86;
#X obj 539 588 receive chords;
#X obj 704 690 trigger bang float;
#N canvas 1149 478 656 446 mixer-channel 0;
#X obj 80 42 inlet~ left;
#X obj 175 42 inlet~ right;
#X obj 293 66 inlet volume;
#X obj 411 138 inlet pan;
#X msg 293 97 \$1 20;
#X obj 293 128 line~;
#X obj 113 175 *~;
#X obj 202 172 *~;
#X obj 164 238 - 30;
#X obj 316 238 + 30;
#N canvas 1048 408 643 472 panner 0;
#X obj 61 54 inlet~ audio;
#X obj 282 56 inlet pan;
#X obj 282 89 + 90;
#X obj 282 122 / 180;
#X obj 282 166 trigger float float;
#X obj 393 209 swap 1;
#X obj 393 254 -;
#X obj 285 312 *~;
#X obj 285 359 outlet~ right;
#X obj 61 312 *~;
#X obj 61 361 outlet~ left;
#X connect 0 0 9 0;
#X connect 0 0 7 0;
#X connect 1 0 2 0;
#X connect 2 0 3 0;
#X connect 3 0 4 0;
#X connect 4 0 9 1;
#X connect 4 1 5 0;
#X connect 5 0 6 0;
#X connect 5 1 6 1;
#X connect 6 0 7 0;
#X connect 7 0 8 0;
#X connect 9 0 10 0;
#X restore 113 282 pd panner;
#N canvas 1048 408 643 472 panner 0;
#X obj 61 54 inlet~ audio;
#X obj 282 56 inlet pan;
#X obj 282 89 + 90;
#X obj 282 122 / 180;
#X obj 282 166 trigger float float;
#X obj 393 209 swap 1;
#X obj 393 254 -;
#X obj 285 312 *~;
#X obj 285 359 outlet~ right;
#X obj 61 312 *~;
#X obj 61 361 outlet~ left;
#X connect 0 0 9 0;
#X connect 0 0 7 0;
#X connect 1 0 2 0;
#X connect 2 0 3 0;
#X connect 3 0 4 0;
#X connect 4 0 9 1;
#X connect 4 1 5 0;
#X connect 5 0 6 0;
#X connect 5 1 6 1;
#X connect 6 0 7 0;
#X connect 7 0 8 0;
#X connect 9 0 10 0;
#X restore 265 284 pd panner;
#X obj 114 325 throw~ left;
#X obj 266 325 throw~ right;
#X connect 0 0 6 0;
#X connect 1 0 7 0;
#X connect 2 0 4 0;
#X connect 3 0 8 0;
#X connect 3 0 9 0;
#X connect 4 0 5 0;
#X connect 5 0 6 1;
#X connect 5 0 7 1;
#X connect 6 0 10 0;
#X connect 7 0 11 0;
#X connect 8 0 10 1;
#X connect 9 0 11 1;
#X connect 10 0 12 0;
#X connect 11 0 13 0;
#X restore 642 774 pd mixer-channel;
#X obj 704 726 *;
#X obj 775 747 receive pan1;
#N canvas 862 315 669 486 padsynth 0;
#X obj 263 36 inlet chord;
#X obj 263 75 trigger list bang;
#X obj 264 117 unpack 1 2 3 4 5 6 7 8;
#X obj 487 167 receive period;
#X obj 487 202 * 4;
#X obj 460 237 float;
#X obj 252 334 outlet~ left;
#X obj 385 333 outlet~ right;
#N canvas 882 455 657 420 oscillatorbank 0;
#X obj 114 63 inlet;
#X obj 114 94 mtof;
#X obj 114 125 phasor~ 300;
#X obj 114 156 -~ 0.5;
#X obj 209 63 inlet;
#X obj 209 94 mtof;
#X obj 209 125 phasor~ 300;
#X obj 209 156 -~ 0.5;
#X obj 313 63 inlet;
#X obj 313 94 mtof;
#X obj 313 125 phasor~ 300;
#X obj 313 156 -~ 0.5;
#X obj 414 63 inlet;
#X obj 414 94 mtof;
#X obj 414 125 phasor~ 300;
#X obj 414 156 -~ 0.5;
#X text 502 158 remove dc offset;
#X obj 210 220 *~ 0.1;
#X obj 210 267 outlet~;
#X connect 0 0 1 0;
#X connect 1 0 2 0;
#X connect 2 0 3 0;
#X connect 3 0 17 0;
#X connect 4 0 5 0;
#X connect 5 0 6 0;
#X connect 6 0 7 0;
#X connect 7 0 17 0;
#X connect 8 0 9 0;
#X connect 9 0 10 0;
#X connect 10 0 11 0;
#X connect 11 0 17 0;
#X connect 12 0 13 0;
#X connect 13 0 14 0;
#X connect 14 0 15 0;
#X connect 15 0 17 0;
#X connect 17 0 18 0;
#X restore 221 167 pd oscillatorbank;
#N canvas 882 455 657 420 oscillatorbank 0;
#X obj 114 63 inlet;
#X obj 114 94 mtof;
#X obj 114 125 phasor~ 300;
#X obj 114 156 -~ 0.5;
#X obj 209 63 inlet;
#X obj 209 94 mtof;
#X obj 209 125 phasor~ 300;
#X obj 209 156 -~ 0.5;
#X obj 313 63 inlet;
#X obj 313 94 mtof;
#X obj 313 125 phasor~ 300;
#X obj 313 156 -~ 0.5;
#X obj 414 63 inlet;
#X obj 414 94 mtof;
#X obj 414 125 phasor~ 300;
#X obj 414 156 -~ 0.5;
#X text 502 158 remove dc offset;
#X obj 210 220 *~ 0.1;
#X obj 210 267 outlet~;
#X connect 0 0 1 0;
#X connect 1 0 2 0;
#X connect 2 0 3 0;
#X connect 3 0 17 0;
#X connect 4 0 5 0;
#X connect 5 0 6 0;
#X connect 6 0 7 0;
#X connect 7 0 17 0;
#X connect 8 0 9 0;
#X connect 9 0 10 0;
#X connect 10 0 11 0;
#X connect 11 0 17 0;
#X connect 12 0 13 0;
#X connect 13 0 14 0;
#X connect 14 0 15 0;
#X connect 15 0 17 0;
#X connect 17 0 18 0;
#X restore 344 167 pd oscillatorbank;
#N canvas 850 300 828 552 stereopandelay 0;
#X obj 98 43 inlet~ left;
#X obj 207 42 inlet~ right;
#N canvas 1180 460 450 300 one-second-wander 0;
#X obj 185 184 outlet;
#X restore 423 80 pd one-second-wander;
#X obj 503 134 swap 1;
#X obj 503 170 -;
#X obj 503 204 * 1000;
#X obj 503 241 + 700;
#X obj 478 278 bp~ 600 4;
#X obj 423 205 * 1000;
#X obj 423 242 + 500;
#X obj 398 279 bp~ 500 3;
#X obj 252 277 * 0.5;
#X obj 252 310 + 0.02;
#X obj 139 276 * 0.5;
#X obj 139 309 + 0.02;
#X obj 397 315 *~ 0.7;
#X obj 97 354 *~;
#X obj 206 356 *~;
#X obj 397 353 delwrite~ \$0-ffff 100;
#X obj 97 473 *~ 0.4;
#X obj 206 473 *~ 0.4;
#X obj 97 519 outlet~;
#X obj 206 519 outlet~;
#X obj 400 380 * 40;
#X obj 400 407 + 10;
#X obj 400 461 line~;
#X msg 400 434 \$1 100;
#X obj 400 488 vd~ \$0-ffff 100;
#X connect 0 0 16 0;
#X connect 0 0 10 0;
#X connect 1 0 17 0;
#X connect 1 0 7 0;
#X connect 2 0 3 0;
#X connect 2 0 8 0;
#X connect 2 0 13 0;
#X connect 2 0 23 0;
#X connect 3 0 4 0;
#X connect 3 1 4 1;
#X connect 4 0 5 0;
#X connect 4 0 11 0;
#X connect 5 0 6 0;
#X connect 6 0 7 1;
#X connect 7 0 16 0;
#X connect 7 0 17 0;
#X connect 8 0 9 0;
#X connect 9 0 10 1;
#X connect 10 0 15 0;
#X connect 11 0 12 0;
#X connect 12 0 17 1;
#X connect 13 0 14 0;
#X connect 14 0 16 1;
#X connect 15 0 18 0;
#X connect 15 0 19 0;
#X connect 16 0 19 0;
#X connect 17 0 20 0;
#X connect 19 0 21 0;
#X connect 20 0 22 0;
#X connect 23 0 24 0;
#X connect 24 0 26 0;
#X connect 25 0 27 0;
#X connect 26 0 25 0;
#X connect 27 0 20 0;
#X restore 222 217 pd stereopandelay;
#N canvas 974 229 745 575 stereoamp 0;
#X obj 104 57 inlet~ left;
#X obj 215 56 inlet~ right;
#X obj 342 57 inlet decay;
#X obj 342 98 trigger float float;
#X obj 342 146 * 7;
#X obj 453 132 * 4;
#X obj 453 164 + 20;
#X obj 342 203 pack float float;
#X msg 342 239 1 20 0 \, 0 \$1 \$2;
#X obj 342 275 vline~;
#X obj 104 318 *~;
#X obj 215 318 *~;
#X obj 104 367 outlet~;
#X obj 215 367 outlet~;
#X connect 0 0 10 0;
#X connect 1 0 11 0;
#X connect 2 0 3 0;
#X connect 3 0 4 0;
#X connect 3 1 5 0;
#X connect 4 0 7 0;
#X connect 5 0 6 0;
#X connect 6 0 7 1;
#X connect 7 0 8 0;
#X connect 8 0 9 0;
#X connect 9 0 10 1;
#X connect 9 0 11 1;
#X connect 10 0 12 0;
#X connect 11 0 13 0;
#X restore 297 288 pd stereoamp;
#X connect 0 0 1 0;
#X connect 1 0 2 0;
#X connect 1 1 5 0;
#X connect 2 0 8 0;
#X connect 2 1 8 1;
#X connect 2 2 8 2;
#X connect 2 3 8 3;
#X connect 2 4 9 0;
#X connect 2 5 9 1;
#X connect 2 6 9 2;
#X connect 2 7 9 3;
#X connect 3 0 4 0;
#X connect 4 0 5 1;
#X connect 5 0 11 2;
#X connect 8 0 10 0;
#X connect 9 0 10 1;
#X connect 10 0 11 0;
#X connect 10 1 11 1;
#X connect 11 0 6 0;
#X connect 11 1 7 0;
#X restore 539 626 pd padsynth;
#X obj 42 25 tgl 15 0 start-stop empty empty 17 7 0 10 -204786 -1 -1
1 1;
#X text 16 6 start-stop;
#X obj 120 25 bng 15 250 50 0 zero empty zero 17 7 0 10 -204786 -1
-1;
#X obj 301 22 vsl 15 128 0.1 1.5 0 0 mast masterfade Master 0 -9 0
10 -204786 -1 -1 12400 1;
#X obj 301 160 tgl 15 0 mastmute empty on 17 7 0 10 -4034 -1 -1 1 1
;
#X obj 375 21 vsl 15 128 0 1 0 0 ch1 empty 1 4 -9 0 10 -203904 -1 -1
8300 1;
#X obj 398 137 tgl 15 0 m1 empty empty 17 7 0 10 -203904 -1 -1 0 1
;
#X obj 378 160 hsl 32 15 -45 45 0 0 pan1 empty pan 5 7 0 10 -203904
-1 -1 1600 1;
#X obj 427 21 vsl 15 128 0 1 0 0 ch2 empty 2 4 -9 0 10 -203904 -1 -1
10400 1;
#X obj 450 137 tgl 15 0 m2 empty empty 17 7 0 10 -203904 -1 -1 0 1
;
#X obj 430 160 hsl 32 15 -45 45 0 0 pan2 empty pan 5 7 0 10 -203904
-1 -1 1300 1;
#X obj 476 21 vsl 15 128 0 1 0 0 ch3 empty 3 4 -9 0 10 -203904 -1 -1
11700 1;
#X obj 499 137 tgl 15 0 m3 empty empty 17 7 0 10 -203904 -1 -1 0 1
;
#X obj 479 160 hsl 32 15 -45 45 0 0 pan3 empty pan 5 7 0 10 -203904
-1 -1 1300 1;
#X obj 528 21 vsl 15 128 0 1 0 0 ch4 empty 4 4 -9 0 10 -203904 -1 -1
0 1;
#X obj 551 137 tgl 15 0 m4 empty empty 17 7 0 10 -203904 -1 -1 0 1
;
#X obj 531 160 hsl 32 15 -45 45 0 0 pan4 empty pan 5 7 0 10 -203904
-1 -1 0 1;
#X obj 579 21 vsl 15 128 0 1 0 0 ch5 empty 5 4 -9 0 10 -203904 -1 -1
0 1;
#X obj 602 137 tgl 15 0 m5 empty empty 17 7 0 10 -203904 -1 -1 0 1
;
#X obj 582 160 hsl 32 15 -45 45 0 0 pan5 empty pan 5 7 0 10 -203904
-1 -1 0 1;
#X obj 630 21 vsl 15 128 0 1 0 0 ch6 empty 6 4 -9 0 10 -203904 -1 -1
0 1;
#X obj 653 137 tgl 15 0 m6 empty empty 17 7 0 10 -203904 -1 -1 0 1
;
#X obj 633 160 hsl 32 15 -45 45 0 0 pan6 empty pan 5 7 0 10 -203904
-1 -1 0 1;
#X obj 684 21 vsl 15 128 0 1 0 0 ch7 empty 7 4 -9 0 10 -203904 -1 -1
0 1;
#X obj 707 137 tgl 15 0 m7 empty empty 17 7 0 10 -203904 -1 -1 0 1
;
#X obj 687 160 hsl 32 15 -45 45 0 0 pan7 empty pan 5 7 0 10 -203904
-1 -1 0 1;
#X obj 736 21 vsl 15 128 0 1 0 0 ch8 empty 8 4 -9 0 10 -203904 -1 -1
0 1;
#X obj 759 137 tgl 15 0 m8 empty empty 17 7 0 10 -203904 -1 -1 0 1
;
#X obj 738 160 hsl 32 15 -45 45 0 0 pan8 empty pan 5 7 0 10 -203904
-1 -1 0 1;
#X obj 611 659 receive ch1;
#X obj 704 658 receive m1;
#N canvas 1064 123 450 300 start 0;
#X obj 114 55 loadbang;
#X msg 114 81 \; pd dsp 1;
#X obj 198 139 s chords;
#X msg 220 88 50 52 66 69 76 79 83 86;
#X connect 0 0 1 0;
#X connect 0 0 3 0;
#X connect 3 0 2 0;
#X restore 61 75 pd start;
#X text 549 544 Stereo Pads (channel 1);
#X text 151 845 Drums (channel 2);
#X obj 118 877 receive drumtime;
#X obj 249 1052 receive ch2;
#X obj 336 1052 receive m2;
#X obj 457 1111 receive pan2;
#X obj 336 1080 trigger bang float;
#X obj 336 1108 *;
#N canvas 1149 478 656 446 mixer-channel 0;
#X obj 80 42 inlet~ left;
#X obj 175 42 inlet~ right;
#X obj 293 66 inlet volume;
#X obj 411 138 inlet pan;
#X msg 293 97 \$1 20;
#X obj 293 128 line~;
#X obj 113 175 *~;
#X obj 202 172 *~;
#X obj 164 238 - 30;
#X obj 316 238 + 30;
#N canvas 1048 408 643 472 panner 0;
#X obj 61 54 inlet~ audio;
#X obj 282 56 inlet pan;
#X obj 282 89 + 90;
#X obj 282 122 / 180;
#X obj 282 166 trigger float float;
#X obj 393 209 swap 1;
#X obj 393 254 -;
#X obj 285 312 *~;
#X obj 285 359 outlet~ right;
#X obj 61 312 *~;
#X obj 61 361 outlet~ left;
#X connect 0 0 9 0;
#X connect 0 0 7 0;
#X connect 1 0 2 0;
#X connect 2 0 3 0;
#X connect 3 0 4 0;
#X connect 4 0 9 1;
#X connect 4 1 5 0;
#X connect 5 0 6 0;
#X connect 5 1 6 1;
#X connect 6 0 7 0;
#X connect 7 0 8 0;
#X connect 9 0 10 0;
#X restore 113 282 pd panner;
#N canvas 1048 408 643 472 panner 0;
#X obj 61 54 inlet~ audio;
#X obj 282 56 inlet pan;
#X obj 282 89 + 90;
#X obj 282 122 / 180;
#X obj 282 166 trigger float float;
#X obj 393 209 swap 1;
#X obj 393 254 -;
#X obj 285 312 *~;
#X obj 285 359 outlet~ right;
#X obj 61 312 *~;
#X obj 61 361 outlet~ left;
#X connect 0 0 9 0;
#X connect 0 0 7 0;
#X connect 1 0 2 0;
#X connect 2 0 3 0;
#X connect 3 0 4 0;
#X connect 4 0 9 1;
#X connect 4 1 5 0;
#X connect 5 0 6 0;
#X connect 5 1 6 1;
#X connect 6 0 7 0;
#X connect 7 0 8 0;
#X connect 9 0 10 0;
#X restore 265 284 pd panner;
#X obj 114 325 throw~ left;
#X obj 266 325 throw~ right;
#X connect 0 0 6 0;
#X connect 1 0 7 0;
#X connect 2 0 4 0;
#X connect 3 0 8 0;
#X connect 3 0 9 0;
#X connect 4 0 5 0;
#X connect 5 0 6 1;
#X connect 5 0 7 1;
#X connect 6 0 10 0;
#X connect 7 0 11 0;
#X connect 8 0 10 1;
#X connect 9 0 11 1;
#X connect 10 0 12 0;
#X connect 11 0 13 0;
#X restore 174 1151 pd mixer-channel;
#N canvas 849 188 673 561 kicksequence 0;
#X obj 218 53 inlet;
#X obj 218 87 mod 16;
#X obj 218 124 select 0 1 2 3 4 5 6 7;
#X obj 167 158 select 8 9 10 11 12 13 14 15;
#X msg 350 219 bang;
#X obj 350 250 random 2;
#X obj 317 287 spigot;
#X msg 235 342 bang;
#X obj 235 381 outlet;
#X connect 0 0 1 0;
#X connect 1 0 2 0;
#X connect 1 0 3 0;
#X connect 1 0 4 0;
#X connect 2 0 7 0;
#X connect 2 2 6 0;
#X connect 2 6 7 0;
#X connect 2 7 6 0;
#X connect 3 0 7 0;
#X connect 3 2 6 0;
#X connect 3 4 7 0;
#X connect 4 0 5 0;
#X connect 5 0 6 1;
#X connect 6 0 7 0;
#X connect 7 0 8 0;
#X restore 118 908 pd kicksequence;
#N canvas 946 166 450 399 kickdrum-wrap 0;
#X obj 154 47 inlet;
#X obj 154 80 trigger;
#X obj 154 113 random 4;
#X obj 154 146 select 0 1 2;
#X msg 154 179 300 130;
#X msg 180 211 600 100;
#X obj 154 310 outlet~;
#X msg 212 246 1800 80;
#N canvas 1056 337 605 498 kickdrum-synth 0;
#X obj 135 25 inlet;
#X obj 93 55 trigger bang bang list;
#X obj 69 84 del 2;
#X msg 144 87 1 2;
#X obj 212 86 unpack 1 2;
#X obj 70 145 pack 1 2;
#X msg 70 115 0;
#X obj 108 183 line~;
#X obj 108 217 *~;
#X obj 108 285 *~ 100;
#X obj 108 319 +~ 20;
#X obj 108 353 osc~;
#X obj 108 387 *~;
#X obj 108 421 *~ 0.3;
#X obj 108 455 outlet~;
#X obj 108 251 *~;
#X connect 0 0 1 0;
#X connect 1 0 2 0;
#X connect 1 1 3 0;
#X connect 1 2 4 0;
#X connect 2 0 6 0;
#X connect 3 0 7 0;
#X connect 4 0 5 1;
#X connect 4 1 9 1;
#X connect 5 0 7 0;
#X connect 6 0 5 0;
#X connect 7 0 8 0;
#X connect 7 0 8 1;
#X connect 8 0 15 0;
#X connect 8 0 15 1;
#X connect 9 0 10 0;
#X connect 10 0 11 0;
#X connect 11 0 12 0;
#X connect 12 0 13 0;
#X connect 13 0 14 0;
#X connect 15 0 9 0;
#X connect 15 0 12 1;
#X restore 154 277 pd kickdrum-synth;
#X connect 0 0 1 0;
#X connect 1 0 2 0;
#X connect 2 0 3 0;
#X connect 3 0 4 0;
#X connect 3 1 5 0;
#X connect 3 2 7 0;
#X connect 4 0 8 0;
#X connect 5 0 8 0;
#X connect 7 0 8 0;
#X connect 8 0 6 0;
#X restore 118 938 pd kickdrum-wrap;
#N canvas 1001 504 450 325 snarepattern 0;
#X obj 114 58 inlet;
#X obj 114 100 mod 16;
#X obj 114 142 select 2 3 4 5 10 11 12;
#X obj 114 184 outlet;
#X connect 0 0 1 0;
#X connect 1 0 2 0;
#X connect 2 0 3 0;
#X connect 2 1 3 0;
#X connect 2 2 3 0;
#X connect 2 3 3 0;
#X connect 2 4 3 0;
#X connect 2 5 3 0;
#X connect 2 6 3 0;
#X restore 205 967 pd snarepattern;
#N canvas 1016 292 450 300 snare-wrap 0;
#X obj 161 8 inlet bang;
#X obj 161 46 random 6;
#X obj 161 80 select 0 1 2 3;
#X msg 179 176 100 400 1 0.3;
#X msg 201 201 50 300 4 0.9;
#X obj 156 269 outlet~;
#N canvas 928 279 450 552 snaresynth 0;
#X obj 125 34 inlet params;
#X obj 125 67 trigger bang bang list;
#X obj 255 100 unpack 1 2 3 4;
#X obj 189 97 del 2;
#X msg 189 125 0 400;
#X msg 113 128 1 1;
#X obj 113 163 line;
#X obj 113 192 *;
#X obj 113 224 *;
#X obj 45 262 noise~;
#X obj 133 264 * 100;
#X obj 133 292 + 600;
#X obj 108 322 bp~ 400 2;
#X obj 123 353 sig~;
#X obj 123 386 lop~ 8;
#X obj 108 420 *~;
#X obj 108 453 *~;
#X obj 109 487 outlet~;
#X connect 0 0 1 0;
#X connect 1 0 5 0;
#X connect 1 1 3 0;
#X connect 1 2 2 0;
#X connect 2 0 10 1;
#X connect 2 1 11 1;
#X connect 2 2 12 2;
#X connect 2 3 16 1;
#X connect 3 0 4 0;
#X connect 4 0 6 0;
#X connect 5 0 6 0;
#X connect 6 0 7 0;
#X connect 6 0 7 1;
#X connect 7 0 8 0;
#X connect 7 0 8 1;
#X connect 8 0 10 0;
#X connect 8 0 13 0;
#X connect 9 0 12 0;
#X connect 10 0 11 0;
#X connect 11 0 12 1;
#X connect 12 0 15 0;
#X connect 13 0 14 0;
#X connect 14 0 15 1;
#X connect 15 0 16 0;
#X connect 16 0 17 0;
#X restore 156 234 pd snaresynth;
#X msg 128 126 500 600 1 0.2;
#X msg 155 151 200 600 1 0.25;
#X connect 0 0 1 0;
#X connect 1 0 2 0;
#X connect 2 0 7 0;
#X connect 2 1 8 0;
#X connect 2 2 3 0;
#X connect 2 3 4 0;
#X connect 3 0 6 0;
#X connect 4 0 6 0;
#X connect 6 0 5 0;
#X connect 7 0 6 0;
#X connect 8 0 6 0;
#X restore 205 994 pd snare-wrap;
#N canvas 1287 29 509 553 snareeffects 0;
#X obj 126 49 inlet~;
#X obj 230 48 loadbang;
#X msg 195 91 375;
#X msg 240 90 0.6;
#X msg 289 90 0.9;
#X obj 163 167 phasor~ 0 456;
#X obj 162 200 *~ 5000;
#X obj 161 233 +~ 300;
#X obj 128 269 vcf~ 100 0.7;
#X obj 128 313 *~ 0.73;
#X obj 128 349 outlet~;
#N canvas 995 190 450 375 delay 0;
#X obj 58 38 inlet~;
#X obj 141 38 inlet time;
#X obj 257 38 inlet feedback;
#X obj 257 72 clip 0 0.9;
#X obj 141 108 delread~ \$0-zzzz 250;
#X obj 141 137 hip~ 20;
#X obj 140 166 lop~ 2000;
#X obj 141 193 *~ 0.6;
#X obj 85 244 +~;
#X obj 182 244 +~;
#X obj 85 276 outlet~;
#X obj 181 276 delwrite~ \$0-zzzz 5000;
#X obj 344 276 outlet~;
#X connect 0 0 8 0;
#X connect 0 0 9 1;
#X connect 0 0 12 0;
#X connect 1 0 4 0;
#X connect 2 0 3 0;
#X connect 3 0 7 1;
#X connect 4 0 5 0;
#X connect 5 0 6 0;
#X connect 6 0 7 0;
#X connect 7 0 8 1;
#X connect 7 0 9 0;
#X connect 8 0 10 0;
#X connect 9 0 11 0;
#X restore 127 126 pd delay;
#X connect 0 0 11 0;
#X connect 1 0 4 0;
#X connect 1 0 3 0;
#X connect 1 0 2 0;
#X connect 2 0 11 1;
#X connect 3 0 11 2;
#X connect 4 0 8 2;
#X connect 5 0 6 0;
#X connect 6 0 7 0;
#X connect 7 0 8 1;
#X connect 8 0 9 0;
#X connect 9 0 10 0;
#X connect 11 0 8 0;
#X restore 205 1022 pd snareeffects;
#X text 628 851 Bassline (channel 3);
#X obj 528 886 receive chords;
#X obj 631 885 receive synthtime;
#X obj 770 885 receive ch3;
#X obj 853 885 receive m3;
#X obj 756 1099 receive pan3;
#X obj 794 926 trigger bang float;
#X obj 795 957 *;
#N canvas 1149 478 656 446 mixer-channel 0;
#X obj 80 42 inlet~ left;
#X obj 175 42 inlet~ right;
#X obj 293 66 inlet volume;
#X obj 411 138 inlet pan;
#X msg 293 97 \$1 20;
#X obj 293 128 line~;
#X obj 113 175 *~;
#X obj 202 172 *~;
#X obj 164 238 - 30;
#X obj 316 238 + 30;
#N canvas 1048 408 643 472 panner 0;
#X obj 61 54 inlet~ audio;
#X obj 282 56 inlet pan;
#X obj 282 89 + 90;
#X obj 282 122 / 180;
#X obj 282 166 trigger float float;
#X obj 393 209 swap 1;
#X obj 393 254 -;
#X obj 285 312 *~;
#X obj 285 359 outlet~ right;
#X obj 61 312 *~;
#X obj 61 361 outlet~ left;
#X connect 0 0 9 0;
#X connect 0 0 7 0;
#X connect 1 0 2 0;
#X connect 2 0 3 0;
#X connect 3 0 4 0;
#X connect 4 0 9 1;
#X connect 4 1 5 0;
#X connect 5 0 6 0;
#X connect 5 1 6 1;
#X connect 6 0 7 0;
#X connect 7 0 8 0;
#X connect 9 0 10 0;
#X restore 113 282 pd panner;
#N canvas 1048 408 643 472 panner 0;
#X obj 61 54 inlet~ audio;
#X obj 282 56 inlet pan;
#X obj 282 89 + 90;
#X obj 282 122 / 180;
#X obj 282 166 trigger float float;
#X obj 393 209 swap 1;
#X obj 393 254 -;
#X obj 285 312 *~;
#X obj 285 359 outlet~ right;
#X obj 61 312 *~;
#X obj 61 361 outlet~ left;
#X connect 0 0 9 0;
#X connect 0 0 7 0;
#X connect 1 0 2 0;
#X connect 2 0 3 0;
#X connect 3 0 4 0;
#X connect 4 0 9 1;
#X connect 4 1 5 0;
#X connect 5 0 6 0;
#X connect 5 1 6 1;
#X connect 6 0 7 0;
#X connect 7 0 8 0;
#X connect 9 0 10 0;
#X restore 265 284 pd panner;
#X obj 114 325 throw~ left;
#X obj 266 325 throw~ right;
#X connect 0 0 6 0;
#X connect 1 0 7 0;
#X connect 2 0 4 0;
#X connect 3 0 8 0;
#X connect 3 0 9 0;
#X connect 4 0 5 0;
#X connect 5 0 6 1;
#X connect 5 0 7 1;
#X connect 6 0 10 0;
#X connect 7 0 11 0;
#X connect 8 0 10 1;
#X connect 9 0 11 1;
#X connect 10 0 12 0;
#X connect 11 0 13 0;
#X restore 651 1138 pd mixer-channel;
#X obj 615 990 receive period;
#X obj 712 990 loadbang;
#X msg 712 1017 0.6;
#X obj 615 1017 * 2;
#N canvas 1072 78 450 787 basesequence 0;
#X obj 126 54 inlet chords;
#X obj 211 97 inlet;
#X obj 211 126 mod 16;
#X obj 211 164 select 0 1 2 3 4 5 6 7;
#X obj 164 199 select 8 9 10 11 12 13 14 15;
#X msg 333 249 bang;
#X obj 333 280 random 2;
#X obj 282 315 spigot;
#X obj 183 362 unpack 1 2;
#X obj 282 394 float;
#X obj 282 429 - 12;
#X obj 103 429 float;
#X obj 211 429 float;
#X obj 211 495 outlet;
#X connect 0 0 8 0;
#X connect 1 0 2 0;
#X connect 2 0 5 0;
#X connect 2 0 3 0;
#X connect 2 0 4 0;
#X connect 3 0 12 0;
#X connect 3 2 7 0;
#X connect 3 6 12 0;
#X connect 4 2 7 0;
#X connect 4 4 11 0;
#X connect 5 0 6 0;
#X connect 6 0 7 1;
#X connect 7 0 9 0;
#X connect 8 0 11 1;
#X connect 8 1 12 1;
#X connect 8 1 9 1;
#X connect 9 0 10 0;
#X connect 10 0 13 0;
#X connect 11 0 13 0;
#X connect 12 0 13 0;
#X restore 528 923 pd basesequence;
#N canvas 1007 115 596 639 basssynth 0;
#X obj 155 66 inlet;
#X obj 155 111 \$1 0.298 0.353 0.172 0.122 0.251 20 1000 0.9;
#X text 183 90 (note \, 10 \, 11 \, 12 \, f1 \, f2 \, A \, D \, Amp)
;
#X obj 155 194 outlet~;
#N canvas 1260 302 450 300 cosynth 0;
#X obj 124 43 inlet;
#X obj 124 118 outlet;
#X connect 0 0 1 0;
#X restore 155 152 pd cosynth;
#X connect 0 0 1 0;
#X connect 1 0 4 0;
#X connect 4 0 3 0;
#X restore 528 950 pd basssynth;
#N canvas 821 179 640 583 filterdelay 0;
#X obj 121 91 inlet tempo;
#X obj 242 92 inlet feedback;
#X obj 365 92 inlet resonance;
#X obj 23 92 inlet~;
#X obj 136 130 phasor~ 0.212;
#X obj 136 167 lop~ 0.2;
#X obj 216 169 loadbang;
#X msg 216 202 0.3;
#X obj 136 204 *~ 900;
#X obj 136 241 +~ 200;
#X obj 102 282 vcf~ 100 0.7;
#X obj 68 356 outlet~;
#X obj 171 355 outlet~;
#N canvas 1021 517 450 300 delay 0;
#X obj 78 58 inlet~;
#X obj 161 58 inlet time;
#X obj 277 58 inlet feedback;
#X obj 277 92 clip 0 0.9;
#X obj 161 128 delread~ \$0-zzzz 250;
#X obj 161 157 hip~ 20;
#X obj 160 186 lop~ 2000;
#X obj 161 213 *~ 0.6;
#X obj 105 264 +~;
#X obj 202 264 +~;
#X obj 105 296 outlet~;
#X obj 201 296 delwrite~ \$0-zzzz 5000;
#X obj 364 296 outlet~;
#X connect 0 0 8 0;
#X connect 0 0 9 1;
#X connect 0 0 12 0;
#X connect 1 0 4 0;
#X connect 2 0 3 0;
#X connect 3 0 7 1;
#X connect 4 0 5 0;
#X connect 5 0 6 0;
#X connect 6 0 7 0;
#X connect 7 0 8 1;
#X connect 7 0 9 0;
#X connect 8 0 10 0;
#X connect 9 0 11 0;
#X restore 99 319 pd delay;
#X connect 0 0 13 1;
#X connect 1 0 13 2;
#X connect 2 0 10 2;
#X connect 3 0 10 0;
#X connect 4 0 5 0;
#X connect 5 0 8 0;
#X connect 6 0 7 0;
#X connect 7 0 10 2;
#X connect 8 0 9 0;
#X connect 9 0 10 1;
#X connect 10 0 13 0;
#X connect 13 0 11 0;
#X connect 13 1 12 0;
#X restore 588 1052 pd filterdelay;
#N canvas 995 190 450 375 delay 0;
#X obj 58 38 inlet~;
#X obj 141 38 inlet time;
#X obj 257 38 inlet feedback;
#X obj 257 72 clip 0 0.9;
#X obj 141 108 delread~ \$0-zzzz 250;
#X obj 141 137 hip~ 20;
#X obj 140 166 lop~ 2000;
#X obj 141 193 *~ 0.6;
#X obj 85 244 +~;
#X obj 182 244 +~;
#X obj 85 276 outlet~;
#X obj 181 276 delwrite~ \$0-zzzz 5000;
#X obj 344 276 outlet~;
#X connect 0 0 8 0;
#X connect 0 0 9 1;
#X connect 0 0 12 0;
#X connect 1 0 4 0;
#X connect 2 0 3 0;
#X connect 3 0 7 1;
#X connect 4 0 5 0;
#X connect 5 0 6 0;
#X connect 6 0 7 0;
#X connect 7 0 8 1;
#X connect 7 0 9 0;
#X connect 8 0 10 0;
#X connect 9 0 11 0;
#X restore 137 136 pd delay;
#N canvas 1231 288 450 300 delay 0;
#X obj 68 48 inlet~;
#X obj 151 48 inlet time;
#X obj 267 48 inlet feedback;
#X obj 267 82 clip 0 0.9;
#X obj 151 118 delread~ \$0-zzzz 250;
#X obj 151 147 hip~ 20;
#X obj 150 176 lop~ 2000;
#X obj 151 203 *~ 0.6;
#X obj 95 254 +~;
#X obj 192 254 +~;
#X obj 95 286 outlet~;
#X obj 191 286 delwrite~ \$0-zzzz 5000;
#X obj 354 286 outlet~;
#X connect 0 0 8 0;
#X connect 0 0 9 1;
#X connect 0 0 12 0;
#X connect 1 0 4 0;
#X connect 2 0 3 0;
#X connect 3 0 7 1;
#X connect 4 0 5 0;
#X connect 5 0 6 0;
#X connect 6 0 7 0;
#X connect 7 0 8 1;
#X connect 7 0 9 0;
#X connect 8 0 10 0;
#X connect 9 0 11 0;
#X restore 738 506 pd delay;
#X connect 0 0 1 0;
#X connect 1 0 10 0;
#X connect 1 1 3 0;
#X connect 2 0 3 0;
#X connect 3 0 4 0;
#X connect 3 0 10 1;
#X connect 5 0 10 2;
#X connect 10 0 6 0;
#X connect 10 1 7 0;
#X connect 10 2 8 0;
#X connect 10 3 9 0;
#X connect 13 0 16 0;
#X connect 14 0 15 0;
#X connect 15 0 16 0;
#X connect 15 1 16 1;
#X connect 16 0 17 0;
#X connect 21 0 22 0;
#X connect 22 0 23 0;
#X connect 23 0 24 0;
#X connect 23 1 25 0;
#X connect 23 2 27 0;
#X connect 23 3 24 0;
#X connect 24 0 26 0;
#X connect 25 0 26 0;
#X connect 27 0 26 0;
#X connect 28 0 33 0;
#X connect 29 0 31 0;
#X connect 29 1 31 1;
#X connect 31 0 30 2;
#X connect 32 0 30 3;
#X connect 33 0 30 0;
#X connect 33 1 30 1;
#X connect 63 0 31 0;
#X connect 64 0 29 0;
#X connect 68 0 75 0;
#X connect 68 0 77 0;
#X connect 69 0 73 0;
#X connect 70 0 72 0;
#X connect 71 0 74 3;
#X connect 72 0 73 0;
#X connect 72 1 73 1;
#X connect 73 0 74 2;
#X connect 75 0 76 0;
#X connect 76 0 74 0;
#X connect 77 0 78 0;
#X connect 78 0 79 0;
#X connect 79 0 74 1;
#X connect 81 0 93 0;
#X connect 82 0 93 1;
#X connect 83 0 87 0;
#X connect 84 0 86 0;
#X connect 85 0 88 3;
#X connect 86 0 87 0;
#X connect 86 1 87 1;
#X connect 87 0 88 2;
#X connect 89 0 92 0;
#X connect 90 0 91 0;
#X connect 91 0 95 2;
#X connect 92 0 95 1;
#X connect 93 0 94 0;
#X connect 94 0 95 0;
#X connect 95 0 88 0;
#X connect 95 1 88 1;
