#N canvas 960 0 944 994 10;
#X obj 110 233 receive start-stop;
#X obj 110 273 trigger float bang;
#X obj 260 273 loadbang;
#X msg 260 313 250;
#X obj 293 364 send period;
#X obj 337 315 receive zero;
#X obj 112 472 send trig;
#X obj 201 472 send scoretime;
#X obj 313 472 send drumtime;
#X obj 419 472 send synthtime;
#N canvas 978 139 762 564 masterclock 0;
#X obj 70 61 inlet start-stop;
#X obj 207 61 loadbang;
#X obj 403 64 inlet zero;
#X obj 207 127 metro 250;
#X obj 291 94 inlet period;
#X obj 403 99 trigger bang;
#X msg 403 134 0;
#X msg 207 94 1;
#X obj 207 177 trigger bang bang;
#X obj 207 296 outlet trig;
#X obj 346 214 float 0;
#X obj 346 257 trigger float float;
#X obj 485 257 trigger float float;
#X obj 485 214 + 1;
#X obj 346 297 outlet scoretime;
#X obj 485 295 outlet drumtime;
#X obj 596 295 / 2;
#X obj 596 333 outlet synthtime;
#X connect 0 0 3 0;
#X connect 1 0 7 0;
#X connect 2 0 5 0;
#X connect 3 0 8 0;
#X connect 4 0 3 1;
#X connect 5 0 6 0;
#X connect 6 0 10 1;
#X connect 7 0 3 0;
#X connect 8 0 9 0;
#X connect 8 1 10 0;
#X connect 10 0 11 0;
#X connect 11 0 14 0;
#X connect 11 1 13 0;
#X connect 12 0 15 0;
#X connect 12 1 16 0;
#X connect 13 0 10 1;
#X connect 13 0 12 0;
#X connect 16 0 17 0;
#X restore 202 414 pd masterclock;
#X text 211 205 Master Clock;
#X text 755 203 Master Mixer;
#X obj 671 239 receive mast;
#X obj 792 239 receive mastmute;
#X obj 792 272 trigger bang float;
#X obj 792 305 *;
#N canvas 1090 191 731 601 mixer-output 0;
#X obj 110 63 catch~ left;
#X obj 217 63 catch~ right;
#X obj 350 22 inlet volume;
#X obj 110 112 *~;
#X obj 217 112 *~;
#X obj 110 161 dac~ 1 2;
#X msg 350 51 \$1 20;
#X obj 350 80 line~;
#X connect 0 0 3 0;
#X connect 1 0 4 0;
#X connect 2 0 6 0;
#X connect 3 0 5 0;
#X connect 4 0 5 1;
#X connect 6 0 7 0;
#X connect 7 0 3 1;
#X connect 7 0 4 1;
#X restore 792 340 pd mixer-output;
#X text 721 384 Mixer Channel;
#N canvas 1149 478 656 446 mixer-channel 0;
#X obj 80 42 inlet~ left;
#X obj 175 42 inlet~ right;
#X obj 293 66 inlet volume;
#X obj 411 138 inlet pan;
#X msg 293 97 \$1 20;
#X obj 293 128 line~;
#X obj 113 175 *~;
#X obj 202 172 *~;
#X obj 164 238 - 30;
#X obj 316 238 + 30;
#N canvas 1048 408 643 472 panner 0;
#X obj 61 54 inlet~ audio;
#X obj 282 56 inlet pan;
#X obj 282 89 + 90;
#X obj 282 122 / 180;
#X obj 282 166 trigger float float;
#X obj 393 209 swap 1;
#X obj 393 254 -;
#X obj 285 312 *~;
#X obj 285 359 outlet~ right;
#X obj 61 312 *~;
#X obj 61 361 outlet~ left;
#X connect 0 0 9 0;
#X connect 0 0 7 0;
#X connect 1 0 2 0;
#X connect 2 0 3 0;
#X connect 3 0 4 0;
#X connect 4 0 9 1;
#X connect 4 1 5 0;
#X connect 5 0 6 0;
#X connect 5 1 6 1;
#X connect 6 0 7 0;
#X connect 7 0 8 0;
#X connect 9 0 10 0;
#X restore 113 282 pd panner;
#N canvas 1048 408 643 472 panner 0;
#X obj 61 54 inlet~ audio;
#X obj 282 56 inlet pan;
#X obj 282 89 + 90;
#X obj 282 122 / 180;
#X obj 282 166 trigger float float;
#X obj 393 209 swap 1;
#X obj 393 254 -;
#X obj 285 312 *~;
#X obj 285 359 outlet~ right;
#X obj 61 312 *~;
#X obj 61 361 outlet~ left;
#X connect 0 0 9 0;
#X connect 0 0 7 0;
#X connect 1 0 2 0;
#X connect 2 0 3 0;
#X connect 3 0 4 0;
#X connect 4 0 9 1;
#X connect 4 1 5 0;
#X connect 5 0 6 0;
#X connect 5 1 6 1;
#X connect 6 0 7 0;
#X connect 7 0 8 0;
#X connect 9 0 10 0;
#X restore 265 284 pd panner;
#X obj 114 325 throw~ left;
#X obj 266 325 throw~ right;
#X connect 0 0 6 0;
#X connect 1 0 7 0;
#X connect 2 0 4 0;
#X connect 3 0 8 0;
#X connect 3 0 9 0;
#X connect 4 0 5 0;
#X connect 5 0 6 1;
#X connect 5 0 7 1;
#X connect 6 0 10 0;
#X connect 7 0 11 0;
#X connect 8 0 10 1;
#X connect 9 0 11 1;
#X connect 10 0 12 0;
#X connect 11 0 13 0;
#X restore 675 466 pd mixer-channel;
#X text 194 541 Score;
#X obj 115 585 receive scoretime;
#X obj 115 623 mod 128;
#X obj 115 656 select 0 32 64 96;
#X msg 115 738 52 48 64 67 76 79 81 83;
#X msg 151 712 50 48 64 67 76 79 81 86;
#X obj 153 783 send chords;
#X msg 174 685 50 52 66 69 76 79 83 86;
#X text 549 544 Stereo Pads;
#X obj 539 588 receive chords;
#X obj 704 690 trigger bang float;
#N canvas 1149 478 656 446 mixer-channel 0;
#X obj 80 42 inlet~ left;
#X obj 175 42 inlet~ right;
#X obj 293 66 inlet volume;
#X obj 411 138 inlet pan;
#X msg 293 97 \$1 20;
#X obj 293 128 line~;
#X obj 113 175 *~;
#X obj 202 172 *~;
#X obj 164 238 - 30;
#X obj 316 238 + 30;
#N canvas 1048 408 643 472 panner 0;
#X obj 61 54 inlet~ audio;
#X obj 282 56 inlet pan;
#X obj 282 89 + 90;
#X obj 282 122 / 180;
#X obj 282 166 trigger float float;
#X obj 393 209 swap 1;
#X obj 393 254 -;
#X obj 285 312 *~;
#X obj 285 359 outlet~ right;
#X obj 61 312 *~;
#X obj 61 361 outlet~ left;
#X connect 0 0 9 0;
#X connect 0 0 7 0;
#X connect 1 0 2 0;
#X connect 2 0 3 0;
#X connect 3 0 4 0;
#X connect 4 0 9 1;
#X connect 4 1 5 0;
#X connect 5 0 6 0;
#X connect 5 1 6 1;
#X connect 6 0 7 0;
#X connect 7 0 8 0;
#X connect 9 0 10 0;
#X restore 113 282 pd panner;
#N canvas 1048 408 643 472 panner 0;
#X obj 61 54 inlet~ audio;
#X obj 282 56 inlet pan;
#X obj 282 89 + 90;
#X obj 282 122 / 180;
#X obj 282 166 trigger float float;
#X obj 393 209 swap 1;
#X obj 393 254 -;
#X obj 285 312 *~;
#X obj 285 359 outlet~ right;
#X obj 61 312 *~;
#X obj 61 361 outlet~ left;
#X connect 0 0 9 0;
#X connect 0 0 7 0;
#X connect 1 0 2 0;
#X connect 2 0 3 0;
#X connect 3 0 4 0;
#X connect 4 0 9 1;
#X connect 4 1 5 0;
#X connect 5 0 6 0;
#X connect 5 1 6 1;
#X connect 6 0 7 0;
#X connect 7 0 8 0;
#X connect 9 0 10 0;
#X restore 265 284 pd panner;
#X obj 114 325 throw~ left;
#X obj 266 325 throw~ right;
#X connect 0 0 6 0;
#X connect 1 0 7 0;
#X connect 2 0 4 0;
#X connect 3 0 8 0;
#X connect 3 0 9 0;
#X connect 4 0 5 0;
#X connect 5 0 6 1;
#X connect 5 0 7 1;
#X connect 6 0 10 0;
#X connect 7 0 11 0;
#X connect 8 0 10 1;
#X connect 9 0 11 1;
#X connect 10 0 12 0;
#X connect 11 0 13 0;
#X restore 642 774 pd mixer-channel;
#X obj 704 726 *;
#X obj 775 747 receive pan1;
#N canvas 862 315 669 486 padsynth 0;
#X obj 263 36 inlet chord;
#X obj 263 75 trigger list bang;
#X obj 264 117 unpack 1 2 3 4 5 6 7 8;
#X obj 487 167 receive period;
#X obj 487 202 * 4;
#X obj 460 237 float;
#X obj 252 334 outlet~ left;
#X obj 385 333 outlet~ right;
#N canvas 882 455 657 420 oscillatorbank 0;
#X obj 114 63 inlet;
#X obj 114 94 mtof;
#X obj 114 125 phasor~ 300;
#X obj 114 156 -~ 0.5;
#X obj 209 63 inlet;
#X obj 209 94 mtof;
#X obj 209 125 phasor~ 300;
#X obj 209 156 -~ 0.5;
#X obj 313 63 inlet;
#X obj 313 94 mtof;
#X obj 313 125 phasor~ 300;
#X obj 313 156 -~ 0.5;
#X obj 414 63 inlet;
#X obj 414 94 mtof;
#X obj 414 125 phasor~ 300;
#X obj 414 156 -~ 0.5;
#X text 502 158 remove dc offset;
#X obj 210 220 *~ 0.1;
#X obj 210 267 outlet~;
#X connect 0 0 1 0;
#X connect 1 0 2 0;
#X connect 2 0 3 0;
#X connect 3 0 17 0;
#X connect 4 0 5 0;
#X connect 5 0 6 0;
#X connect 6 0 7 0;
#X connect 7 0 17 0;
#X connect 8 0 9 0;
#X connect 9 0 10 0;
#X connect 10 0 11 0;
#X connect 11 0 17 0;
#X connect 12 0 13 0;
#X connect 13 0 14 0;
#X connect 14 0 15 0;
#X connect 15 0 17 0;
#X connect 17 0 18 0;
#X restore 221 167 pd oscillatorbank;
#N canvas 882 455 657 420 oscillatorbank 0;
#X obj 114 63 inlet;
#X obj 114 94 mtof;
#X obj 114 125 phasor~ 300;
#X obj 114 156 -~ 0.5;
#X obj 209 63 inlet;
#X obj 209 94 mtof;
#X obj 209 125 phasor~ 300;
#X obj 209 156 -~ 0.5;
#X obj 313 63 inlet;
#X obj 313 94 mtof;
#X obj 313 125 phasor~ 300;
#X obj 313 156 -~ 0.5;
#X obj 414 63 inlet;
#X obj 414 94 mtof;
#X obj 414 125 phasor~ 300;
#X obj 414 156 -~ 0.5;
#X text 502 158 remove dc offset;
#X obj 210 220 *~ 0.1;
#X obj 210 267 outlet~;
#X connect 0 0 1 0;
#X connect 1 0 2 0;
#X connect 2 0 3 0;
#X connect 3 0 17 0;
#X connect 4 0 5 0;
#X connect 5 0 6 0;
#X connect 6 0 7 0;
#X connect 7 0 17 0;
#X connect 8 0 9 0;
#X connect 9 0 10 0;
#X connect 10 0 11 0;
#X connect 11 0 17 0;
#X connect 12 0 13 0;
#X connect 13 0 14 0;
#X connect 14 0 15 0;
#X connect 15 0 17 0;
#X connect 17 0 18 0;
#X restore 344 167 pd oscillatorbank;
#N canvas 850 300 828 552 stereopandelay 0;
#X obj 98 43 inlet~ left;
#X obj 207 42 inlet~ right;
#N canvas 1180 460 450 300 one-second-wander 0;
#X obj 185 184 outlet;
#X restore 423 80 pd one-second-wander;
#X obj 503 134 swap 1;
#X obj 503 170 -;
#X obj 503 204 * 1000;
#X obj 503 241 + 700;
#X obj 478 278 bp~ 600 4;
#X obj 423 205 * 1000;
#X obj 423 242 + 500;
#X obj 398 279 bp~ 500 3;
#X obj 252 277 * 0.5;
#X obj 252 310 + 0.02;
#X obj 139 276 * 0.5;
#X obj 139 309 + 0.02;
#X obj 397 315 *~ 0.7;
#X obj 97 354 *~;
#X obj 206 356 *~;
#X obj 397 353 delwrite~ \$0-ffff 100;
#X obj 97 473 *~ 0.4;
#X obj 206 473 *~ 0.4;
#X obj 97 519 outlet~;
#X obj 206 519 outlet~;
#X obj 400 380 * 40;
#X obj 400 407 + 10;
#X obj 400 461 line~;
#X msg 400 434 \$1 100;
#X obj 400 488 vd~ \$0-ffff 100;
#X connect 0 0 16 0;
#X connect 0 0 10 0;
#X connect 1 0 17 0;
#X connect 1 0 7 0;
#X connect 2 0 3 0;
#X connect 2 0 8 0;
#X connect 2 0 13 0;
#X connect 2 0 23 0;
#X connect 3 0 4 0;
#X connect 3 1 4 1;
#X connect 4 0 5 0;
#X connect 4 0 11 0;
#X connect 5 0 6 0;
#X connect 6 0 7 1;
#X connect 7 0 16 0;
#X connect 7 0 17 0;
#X connect 8 0 9 0;
#X connect 9 0 10 1;
#X connect 10 0 15 0;
#X connect 11 0 12 0;
#X connect 12 0 17 1;
#X connect 13 0 14 0;
#X connect 14 0 16 1;
#X connect 15 0 18 0;
#X connect 15 0 19 0;
#X connect 16 0 19 0;
#X connect 17 0 20 0;
#X connect 19 0 21 0;
#X connect 20 0 22 0;
#X connect 23 0 24 0;
#X connect 24 0 26 0;
#X connect 25 0 27 0;
#X connect 26 0 25 0;
#X connect 27 0 20 0;
#X restore 222 217 pd stereopandelay;
#N canvas 974 229 745 575 stereoamp 0;
#X obj 104 57 inlet~ left;
#X obj 215 56 inlet~ right;
#X obj 342 57 inlet decay;
#X obj 342 98 trigger float float;
#X obj 342 146 * 7;
#X obj 453 132 * 4;
#X obj 453 164 + 20;
#X obj 342 203 pack float float;
#X msg 342 239 1 20 0 \, 0 \$1 \$2;
#X obj 342 275 vline~;
#X obj 104 318 *~;
#X obj 215 318 *~;
#X obj 104 367 outlet~;
#X obj 215 367 outlet~;
#X connect 0 0 10 0;
#X connect 1 0 11 0;
#X connect 2 0 3 0;
#X connect 3 0 4 0;
#X connect 3 1 5 0;
#X connect 4 0 7 0;
#X connect 5 0 6 0;
#X connect 6 0 7 1;
#X connect 7 0 8 0;
#X connect 8 0 9 0;
#X connect 9 0 10 1;
#X connect 9 0 11 1;
#X connect 10 0 12 0;
#X connect 11 0 13 0;
#X restore 297 288 pd stereoamp;
#X connect 0 0 1 0;
#X connect 1 0 2 0;
#X connect 1 1 5 0;
#X connect 2 0 8 0;
#X connect 2 1 8 1;
#X connect 2 2 8 2;
#X connect 2 3 8 3;
#X connect 2 4 9 0;
#X connect 2 5 9 1;
#X connect 2 6 9 2;
#X connect 2 7 9 3;
#X connect 3 0 4 0;
#X connect 4 0 5 1;
#X connect 5 0 11 2;
#X connect 8 0 10 0;
#X connect 9 0 10 1;
#X connect 10 0 11 0;
#X connect 10 1 11 1;
#X connect 11 0 6 0;
#X connect 11 1 7 0;
#X restore 539 626 pd padsynth;
#X obj 42 25 tgl 15 0 start-stop empty empty 17 7 0 10 -204786 -1 -1
0 1;
#X text 16 6 start-stop;
#X obj 120 25 bng 15 250 50 0 zero empty zero 17 7 0 10 -204786 -1
-1;
#X obj 301 22 vsl 15 128 0.1 1.5 0 0 mast masterfade Master 0 -9 0
10 -204786 -1 -1 12400 1;
#X obj 301 160 tgl 15 0 mastmute empty on 17 7 0 10 -4034 -1 -1 0 1
;
#X obj 375 21 vsl 15 128 0 1 0 0 ch1 empty 1 4 -9 0 10 -203904 -1 -1
12700 1;
#X obj 398 137 tgl 15 0 m1 empty empty 17 7 0 10 -203904 -1 -1 0 1
;
#X obj 378 160 hsl 32 15 -45 45 0 0 pan1 empty pan 5 7 0 10 -203904
-1 -1 1500 1;
#X obj 427 21 vsl 15 128 0 1 0 0 ch2 empty 2 4 -9 0 10 -203904 -1 -1
0 1;
#X obj 450 137 tgl 15 0 m2 empty empty 17 7 0 10 -203904 -1 -1 0 1
;
#X obj 430 160 hsl 32 15 -45 45 0 0 pan2 empty pan 5 7 0 10 -203904
-1 -1 0 1;
#X obj 476 21 vsl 15 128 0 1 0 0 ch3 empty 3 4 -9 0 10 -203904 -1 -1
0 1;
#X obj 499 137 tgl 15 0 m3 empty empty 17 7 0 10 -203904 -1 -1 0 1
;
#X obj 479 160 hsl 32 15 -45 45 0 0 pan3 empty pan 5 7 0 10 -203904
-1 -1 0 1;
#X obj 528 21 vsl 15 128 0 1 0 0 ch4 empty 4 4 -9 0 10 -203904 -1 -1
0 1;
#X obj 551 137 tgl 15 0 m4 empty empty 17 7 0 10 -203904 -1 -1 0 1
;
#X obj 531 160 hsl 32 15 -45 45 0 0 pan4 empty pan 5 7 0 10 -203904
-1 -1 0 1;
#X obj 579 21 vsl 15 128 0 1 0 0 ch5 empty 5 4 -9 0 10 -203904 -1 -1
0 1;
#X obj 602 137 tgl 15 0 m5 empty empty 17 7 0 10 -203904 -1 -1 0 1
;
#X obj 582 160 hsl 32 15 -45 45 0 0 pan5 empty pan 5 7 0 10 -203904
-1 -1 0 1;
#X obj 630 21 vsl 15 128 0 1 0 0 ch6 empty 6 4 -9 0 10 -203904 -1 -1
0 1;
#X obj 653 137 tgl 15 0 m6 empty empty 17 7 0 10 -203904 -1 -1 0 1
;
#X obj 633 160 hsl 32 15 -45 45 0 0 pan6 empty pan 5 7 0 10 -203904
-1 -1 0 1;
#X obj 684 21 vsl 15 128 0 1 0 0 ch7 empty 7 4 -9 0 10 -203904 -1 -1
0 1;
#X obj 707 137 tgl 15 0 m7 empty empty 17 7 0 10 -203904 -1 -1 0 1
;
#X obj 687 160 hsl 32 15 -45 45 0 0 pan7 empty pan 5 7 0 10 -203904
-1 -1 0 1;
#X obj 736 21 vsl 15 128 0 1 0 0 ch8 empty 8 4 -9 0 10 -203904 -1 -1
0 1;
#X obj 759 137 tgl 15 0 m8 empty empty 17 7 0 10 -203904 -1 -1 0 1
;
#X obj 738 160 hsl 32 15 -45 45 0 0 pan8 empty pan 5 7 0 10 -203904
-1 -1 0 1;
#X obj 611 659 receive ch1;
#X obj 704 658 receive m1;
#N canvas 1064 123 450 300 start 0;
#X obj 114 55 loadbang;
#X msg 114 81 \; pd dsp 1;
#X obj 198 139 s chords;
#X msg 220 88 50 52 66 69 76 79 83 86;
#X connect 0 0 1 0;
#X connect 0 0 3 0;
#X connect 3 0 2 0;
#X restore 61 75 pd start;
#X connect 0 0 1 0;
#X connect 1 0 10 0;
#X connect 1 1 3 0;
#X connect 2 0 3 0;
#X connect 3 0 4 0;
#X connect 3 0 10 1;
#X connect 5 0 10 2;
#X connect 10 0 6 0;
#X connect 10 1 7 0;
#X connect 10 2 8 0;
#X connect 10 3 9 0;
#X connect 13 0 16 0;
#X connect 14 0 15 0;
#X connect 15 0 16 0;
#X connect 15 1 16 1;
#X connect 16 0 17 0;
#X connect 21 0 22 0;
#X connect 22 0 23 0;
#X connect 23 0 24 0;
#X connect 23 1 25 0;
#X connect 23 2 27 0;
#X connect 23 3 24 0;
#X connect 24 0 26 0;
#X connect 25 0 26 0;
#X connect 27 0 26 0;
#X connect 29 0 34 0;
#X connect 30 0 32 0;
#X connect 30 1 32 1;
#X connect 32 0 31 2;
#X connect 33 0 31 3;
#X connect 34 0 31 0;
#X connect 34 1 31 1;
#X connect 64 0 32 0;
#X connect 65 0 30 0;
