#N canvas 0 0 944 994 10;
#X msg 28 36 servus;
#X symbolatom 28 120 10 0 0 0 - - -;
#X obj 28 78 symbol;
#X obj 119 72 +;
#X msg 248 38 5;
#X floatatom 119 106 5 0 0 0 - - -;
#X msg 119 38 1;
#X msg 154 38 2;
#X msg 188 38 3;
#X msg 284 38 4;
#X msg 322 38 6;
#X msg 67 234 1;
#X msg 67 213 Counter;
#X msg 101 234 -1;
#X msg 101 255 0;
#X obj 67 292 +;
#X obj 100 292 float;
#X floatatom 67 313 5 0 0 0 - - -;
#X msg 164 234 bang;
#X obj 163 289 float;
#X msg 214 258 0;
#X floatatom 163 314 5 0 0 0 - - -;
#X obj 214 283 + 1;
#X msg 164 209 Counter;
#X obj 271 231 trigger bang bang bang;
#X obj 271 206 bng 15 250 50 0 empty empty empty 17 7 0 10 -262144
-1 -1;
#X msg 384 273 1;
#X msg 328 274 2;
#X msg 272 274 3;
#X obj 305 319 print ORDER;
#X msg 498 206 bang;
#X msg 640 204 bang;
#X msg 499 332 bang;
#X msg 561 334 sense;
#X msg 626 333 makes;
#X msg 690 333 this;
#X msg 796 331 bang;
#X msg 743 332 now;
#X obj 556 379 mapping/tolist;
#X obj 640 233 trigger bang bang bang bang bang bang;
#X obj 556 409 print;
#X obj 611 409 print_long;
#X connect 0 0 2 0;
#X connect 2 0 1 0;
#X connect 3 0 5 0;
#X connect 4 0 3 1;
#X connect 6 0 3 0;
#X connect 7 0 3 0;
#X connect 8 0 3 0;
#X connect 9 0 3 1;
#X connect 10 0 3 1;
#X connect 11 0 15 0;
#X connect 13 0 15 0;
#X connect 14 0 16 0;
#X connect 15 0 16 0;
#X connect 15 0 17 0;
#X connect 16 0 15 1;
#X connect 18 0 19 0;
#X connect 19 0 22 0;
#X connect 19 0 21 0;
#X connect 20 0 19 1;
#X connect 22 0 19 1;
#X connect 24 0 28 0;
#X connect 24 1 27 0;
#X connect 24 2 26 0;
#X connect 25 0 24 0;
#X connect 26 0 29 0;
#X connect 27 0 29 0;
#X connect 28 0 29 0;
#X connect 30 0 32 0;
#X connect 30 0 33 0;
#X connect 30 0 34 0;
#X connect 30 0 35 0;
#X connect 30 0 37 0;
#X connect 30 0 36 0;
#X connect 31 0 39 0;
#X connect 32 0 38 1;
#X connect 33 0 38 0;
#X connect 34 0 38 0;
#X connect 35 0 38 0;
#X connect 36 0 38 1;
#X connect 36 0 38 0;
#X connect 37 0 38 0;
#X connect 38 0 40 0;
#X connect 38 0 41 0;
#X connect 39 0 32 0;
#X connect 39 1 33 0;
#X connect 39 2 34 0;
#X connect 39 3 35 0;
#X connect 39 4 37 0;
#X connect 39 5 36 0;
