#N canvas 960 0 944 994 10;
#X obj 95 65 receive start-stop;
#X obj 95 105 trigger float bang;
#X obj 245 105 loadbang;
#X msg 245 145 250;
#X obj 278 196 send period;
#X obj 322 147 receive zero;
#X obj 97 304 send trig;
#X obj 186 304 send scoretime;
#X obj 298 304 send drumtime;
#X obj 404 304 send synthtime;
#N canvas 978 139 762 564 masterclock 0;
#X obj 70 61 inlet start-stop;
#X obj 207 61 loadbang;
#X obj 403 64 inlet zero;
#X obj 207 127 metro 250;
#X obj 291 94 inlet period;
#X obj 403 99 trigger bang;
#X msg 403 134 0;
#X msg 207 94 1;
#X obj 207 177 trigger bang bang;
#X obj 207 296 outlet trig;
#X obj 346 214 float 0;
#X obj 346 257 trigger float float;
#X obj 485 257 trigger float float;
#X obj 485 214 + 1;
#X obj 346 297 outlet scoretime;
#X obj 485 295 outlet drumtime;
#X obj 596 295 / 2;
#X obj 596 333 outlet synthtime;
#X connect 0 0 3 0;
#X connect 1 0 7 0;
#X connect 2 0 5 0;
#X connect 3 0 8 0;
#X connect 4 0 3 1;
#X connect 5 0 6 0;
#X connect 6 0 10 1;
#X connect 7 0 3 0;
#X connect 8 0 9 0;
#X connect 8 1 10 0;
#X connect 10 0 11 0;
#X connect 11 0 14 0;
#X connect 11 1 13 0;
#X connect 12 0 15 0;
#X connect 12 1 16 0;
#X connect 13 0 10 1;
#X connect 13 0 12 0;
#X connect 16 0 17 0;
#X restore 187 246 pd masterclock;
#X text 210 32 Master Clock;
#X text 699 34 Master Mixer;
#X obj 656 71 receive mast;
#X obj 777 71 receive mastmute;
#X obj 777 104 trigger bang float;
#X obj 777 137 *;
#N canvas 1090 191 731 601 mixer-output 0;
#X obj 110 63 catch~ left;
#X obj 217 63 catch~ right;
#X obj 350 22 inlet volume;
#X obj 110 112 *~;
#X obj 217 112 *~;
#X obj 110 161 dac~ 1 2;
#X msg 350 51 \$1 20;
#X obj 350 80 line~;
#X connect 0 0 3 0;
#X connect 1 0 4 0;
#X connect 2 0 6 0;
#X connect 3 0 5 0;
#X connect 4 0 5 1;
#X connect 6 0 7 0;
#X connect 7 0 3 1;
#X connect 7 0 4 1;
#X restore 777 172 pd mixer-output;
#X text 706 216 Mixer Channel;
#N canvas 1149 478 656 446 mixer-channel 0;
#X obj 80 42 inlet~ left;
#X obj 175 42 inlet~ right;
#X obj 293 66 inlet volume;
#X obj 411 138 inlet pan;
#X msg 293 97 \$1 20;
#X obj 293 128 line~;
#X obj 113 175 *~;
#X obj 202 172 *~;
#X obj 164 238 - 30;
#X obj 316 238 + 30;
#N canvas 1048 408 643 472 panner 0;
#X obj 61 54 inlet~ audio;
#X obj 282 56 inlet pan;
#X obj 282 89 + 90;
#X obj 282 122 / 180;
#X obj 282 166 trigger float float;
#X obj 393 209 swap 1;
#X obj 393 254 -;
#X obj 285 312 *~;
#X obj 285 359 outlet~ right;
#X obj 61 312 *~;
#X obj 61 361 outlet~ left;
#X connect 0 0 9 0;
#X connect 0 0 7 0;
#X connect 1 0 2 0;
#X connect 2 0 3 0;
#X connect 3 0 4 0;
#X connect 4 0 9 1;
#X connect 4 1 5 0;
#X connect 5 0 6 0;
#X connect 5 1 6 1;
#X connect 6 0 7 0;
#X connect 7 0 8 0;
#X connect 9 0 10 0;
#X restore 113 282 pd panner;
#N canvas 1048 408 643 472 panner 0;
#X obj 61 54 inlet~ audio;
#X obj 282 56 inlet pan;
#X obj 282 89 + 90;
#X obj 282 122 / 180;
#X obj 282 166 trigger float float;
#X obj 393 209 swap 1;
#X obj 393 254 -;
#X obj 285 312 *~;
#X obj 285 359 outlet~ right;
#X obj 61 312 *~;
#X obj 61 361 outlet~ left;
#X connect 0 0 9 0;
#X connect 0 0 7 0;
#X connect 1 0 2 0;
#X connect 2 0 3 0;
#X connect 3 0 4 0;
#X connect 4 0 9 1;
#X connect 4 1 5 0;
#X connect 5 0 6 0;
#X connect 5 1 6 1;
#X connect 6 0 7 0;
#X connect 7 0 8 0;
#X connect 9 0 10 0;
#X restore 265 284 pd panner;
#X obj 114 325 throw~ left;
#X obj 266 325 throw~ right;
#X connect 0 0 6 0;
#X connect 1 0 7 0;
#X connect 2 0 4 0;
#X connect 3 0 8 0;
#X connect 3 0 9 0;
#X connect 4 0 5 0;
#X connect 5 0 6 1;
#X connect 5 0 7 1;
#X connect 6 0 10 0;
#X connect 7 0 11 0;
#X connect 8 0 10 1;
#X connect 9 0 11 1;
#X connect 10 0 12 0;
#X connect 11 0 13 0;
#X restore 660 298 pd mixer-channel;
#X connect 0 0 1 0;
#X connect 1 0 10 0;
#X connect 1 1 3 0;
#X connect 2 0 3 0;
#X connect 3 0 4 0;
#X connect 3 0 10 1;
#X connect 5 0 10 2;
#X connect 10 0 6 0;
#X connect 10 1 7 0;
#X connect 10 2 8 0;
#X connect 10 3 9 0;
#X connect 13 0 16 0;
#X connect 14 0 15 0;
#X connect 15 0 16 0;
#X connect 15 1 16 1;
#X connect 16 0 17 0;
