#N canvas 0 0 944 994 10;
#X declare -lib libdir -lib cyclone -lib flatgui;
#N canvas 1114 256 450 300 testCounter 0;
#X obj 118 89 float;
#X obj 185 89 + 1;
#X floatatom 118 133 5 0 0 0 - - -;
#X msg 94 29 bang;
#X msg 183 63 0;
#X obj 39 28 inlet;
#X obj 164 133 outlet;
#X obj 222 31 inlet;
#X obj 34 58 tgl 15 0 empty empty empty 17 7 0 10 -262144 -1 -1 0 1
;
#X obj 37 89 delay 1000;
#X connect 0 0 2 0;
#X connect 0 0 1 0;
#X connect 0 0 6 0;
#X connect 0 0 9 0;
#X connect 1 0 0 1;
#X connect 3 0 0 0;
#X connect 4 0 0 1;
#X connect 5 0 8 0;
#X connect 7 0 4 0;
#X connect 8 0 9 0;
#X connect 9 0 0 0;
#X restore 54 33 pd testCounter;
#X obj 126 70 print_long;
#X obj 54 74 print;
#X obj 135 6 bng 15 250 50 0 empty empty empty 17 7 0 10 -262144 -1
-1;
#X obj 53 6 bng 15 250 50 0 empty empty empty 17 7 0 10 -262144 -1
-1;
#X obj 32 158 import libdir cyclone flatgui;
#X obj 32 191 cyclone/Scope~ 238 177 256 3 128 -1 1 0 0 0 0 102 255
51 135 135 135 0;
#X obj 21 466 unauthorized/grid grid1 200 0 199 200 0 199 1 1 1 10
10 175 585;
#X floatatom 24 683 5 0 0 0 - - -;
#X floatatom 217 684 5 0 0 0 - - -;
#X obj 693 544 envgen 200 140 1 0  ;
#X obj 699 7 vsl 28 128 0 127 0 0 empty test_vsl empty 0 -9 0 10 -241291
-42246 -128992 0 1;
#X obj 520 50 tgl 30 0 empty empty empty 17 7 0 10 -4034 -1 -1 0 1
;
#N canvas 502 357 450 335 modify 0;
#X obj 141 38 inlet;
#X obj 141 78 metro 1000;
#X obj 65 160 random 1200;
#X obj 65 200 % 120;
#X obj 65 240 + 15;
#X obj 249 165 random 256;
#X obj 273 190 random 256;
#X obj 303 216 random 256;
#X obj 255 245 pack 0 0 0;
#X obj 141 118 trigger bang bang;
#X msg 65 282 \; test_vsl size \$1;
#X msg 256 286 \; test_vsl color \$1 \$2 \$3;
#X connect 0 0 1 0;
#X connect 1 0 9 0;
#X connect 2 0 3 0;
#X connect 3 0 4 0;
#X connect 4 0 10 0;
#X connect 5 0 8 0;
#X connect 6 0 8 1;
#X connect 7 0 8 2;
#X connect 8 0 11 0;
#X connect 9 0 2 0;
#X connect 9 1 5 0;
#X connect 9 1 6 0;
#X connect 9 1 7 0;
#X restore 523 111 pd modify;
#X obj 515 293 select 1 2 3 4;
#X obj 514 334 bng 15 250 50 0 empty empty empty 17 7 0 10 -262144
-1 -1;
#X obj 536 333 bng 15 250 50 0 empty empty empty 17 7 0 10 -262144
-1 -1;
#X obj 559 332 bng 15 250 50 0 empty empty empty 17 7 0 10 -262144
-1 -1;
#X obj 581 334 bng 15 250 50 0 empty empty empty 17 7 0 10 -262144
-1 -1;
#X obj 614 332 print_long;
#X msg 729 264 symbol test;
#X msg 679 244 400;
#X msg 614 225 3;
#X msg 553 211 2;
#X msg 504 196 1;
#X obj 45 803 osc~;
#X obj 89 875 dac~;
#X obj 137 800 line~;
#X obj 89 831 *~;
#X obj 216 723 delay 200;
#X msg 216 754 0 250;
#X obj 132 721 pack 0 25;
#X obj 48 750 + 250;
#X obj 87 703 / 200;
#X obj 282 700 bang;
#X obj 773 720 osc~;
#X obj 773 756 dac~;
#X obj 667 511 bng 15 250 50 0 empty empty empty 17 7 0 10 -262144
-1 -1;
#X floatatom 430 658 5 0 0 0 - - -;
#X floatatom 534 659 5 0 0 0 - - -;
#X obj 467 742 / 9;
#X floatatom 442 849 5 0 0 0 - - -;
#X floatatom 534 820 5 0 0 0 - - -;
#X obj 534 697 * 9;
#X obj 534 738 / 5;
#X obj 412 713 - 32;
#X obj 534 779 + 32;
#X obj 467 684 bang;
#X obj 467 713 5;
#X obj 442 820 *;
#X floatatom 404 777 5 0 0 0 - - -;
#X floatatom 465 779 5 0 0 0 - - -;
#X connect 0 0 1 0;
#X connect 3 0 0 1;
#X connect 4 0 0 0;
#X connect 7 0 8 0;
#X connect 7 0 32 0;
#X connect 7 1 9 0;
#X connect 7 1 33 0;
#X connect 7 1 34 0;
#X connect 12 0 13 0;
#X connect 14 0 15 0;
#X connect 14 1 16 0;
#X connect 14 2 17 0;
#X connect 14 3 18 0;
#X connect 14 4 19 0;
#X connect 20 0 14 0;
#X connect 21 0 14 0;
#X connect 22 0 14 0;
#X connect 23 0 14 0;
#X connect 24 0 14 0;
#X connect 25 0 28 0;
#X connect 27 0 28 1;
#X connect 28 0 26 0;
#X connect 28 0 26 1;
#X connect 29 0 30 0;
#X connect 30 0 27 0;
#X connect 31 0 27 0;
#X connect 32 0 25 0;
#X connect 33 0 31 0;
#X connect 34 0 29 0;
#X connect 37 0 10 0;
#X connect 38 0 47 0;
#X connect 38 0 45 0;
#X connect 39 0 43 0;
#X connect 40 0 51 0;
#X connect 43 0 44 0;
#X connect 44 0 46 0;
#X connect 45 0 50 0;
#X connect 46 0 42 0;
#X connect 47 0 48 0;
#X connect 48 0 40 0;
#X connect 49 0 41 0;
#X connect 50 0 49 0;
#X connect 51 0 49 1;
