#N canvas 960 0 944 994 10;
#N canvas 1043 245 450 300 countingTimebase 0;
#X obj 63 45 inlet start-stop;
#X obj 209 45 inlet period;
#X obj 129 101 metro 125;
#X obj 129 135 trigger bang bang;
#X obj 231 181 float 0;
#X obj 303 181 + 1;
#X obj 128 226 outlet bangs;
#X obj 231 226 outlet time;
#X connect 0 0 2 0;
#X connect 1 0 2 1;
#X connect 2 0 3 0;
#X connect 3 0 6 0;
#X connect 3 1 4 0;
#X connect 4 0 5 0;
#X connect 4 0 7 0;
#X connect 5 0 4 1;
#X restore 588 114 pd countingTimebase;
#N canvas 1141 236 450 320 synth1 0;
#X obj 120 41 inlet note;
#X obj 120 85 trigger float bang;
#X obj 120 131 mtof;
#X obj 120 170 osc~;
#X msg 225 129 1 0 \, 0 700;
#X obj 225 169 line~;
#X obj 121 215 *~;
#X obj 120 248 *~ 0.3;
#X obj 120 283 outlet~;
#X connect 0 0 1 0;
#X connect 1 0 2 0;
#X connect 1 1 4 0;
#X connect 2 0 3 0;
#X connect 3 0 6 0;
#X connect 4 0 5 0;
#X connect 5 0 6 1;
#X connect 6 0 7 0;
#X connect 7 0 8 0;
#X restore 211 116 pd synth1;
#N canvas 1163 319 450 300 sequencer 0;
#X obj 70 28 inlet time;
#X obj 70 71 mod 16;
#X obj 70 109 select 0 3 4 5 6 7 8 11 12 13 14;
#X msg 70 157 40;
#X msg 104 156 42;
#X msg 155 156 44;
#X msg 190 155 43;
#X msg 224 154 38;
#X obj 70 217 outlet note;
#X connect 0 0 1 0;
#X connect 1 0 2 0;
#X connect 2 0 3 0;
#X connect 2 1 3 0;
#X connect 2 2 4 0;
#X connect 2 5 5 0;
#X connect 2 7 6 0;
#X connect 2 9 7 0;
#X connect 3 0 8 0;
#X connect 4 0 8 0;
#X connect 5 0 8 0;
#X connect 6 0 8 0;
#X connect 7 0 8 0;
#X restore 60 222 pd sequencer;
#X obj 60 192 receive time;
#X obj 60 258 send synth1;
#X obj 211 80 receive synth1;
#X obj 212 185 *~;
#X obj 283 148 hsl 128 15 0 127 0 0 empty empty synth1_volume 8 8 0
10 -203904 -1 -1 4500 1;
#X obj 213 225 throw~ mix;
#X obj 588 55 bng 15 250 50 0 empty empty empty 17 7 0 10 -4034 -1
-1;
#X obj 699 152 send time;
#X obj 838 53 catch~ mix;
#X obj 838 121 dac~;
#X obj 839 87 *~ 0.35;
#X text 128 26 Baseline Rhythm Generator;
#N canvas 752 322 785 592 synth2 0;
#X obj 135 31 inlet note;
#X obj 291 35 inlet decay;
#X obj 48 73 osc~ 8;
#X text 44 52 vibrato;
#X obj 48 111 *~ 3;
#X obj 135 70 trigger float bang;
#X obj 135 110 mtof;
#X obj 120 163 +~;
#X obj 120 204 osc~;
#X obj 291 71 * 1000;
#X obj 240 118 float 100;
#X obj 240 202 vline~;
#X obj 241 245 *~;
#X obj 120 246 clip~ -0.1 0.1;
#X obj 121 287 *~ 2;
#X obj 122 340 *~;
#X obj 121 385 outlet~;
#X text 23 245 get square wave;
#X text 275 247 square wave (^2);
#X msg 240 166 1 12 0 \, 0 \$1 12;
#X connect 0 0 5 0;
#X connect 1 0 9 0;
#X connect 2 0 4 0;
#X connect 4 0 7 0;
#X connect 5 0 6 0;
#X connect 5 1 10 0;
#X connect 6 0 7 1;
#X connect 7 0 8 0;
#X connect 8 0 13 0;
#X connect 9 0 10 1;
#X connect 10 0 19 0;
#X connect 11 0 12 0;
#X connect 11 0 12 1;
#X connect 12 0 15 1;
#X connect 13 0 14 0;
#X connect 14 0 15 0;
#X connect 15 0 16 0;
#X connect 19 0 11 0;
#X restore 327 501 pd synth2;
#N canvas 1019 261 625 484 arpeggiator 0;
#X obj 40 34 inlet time;
#X obj 40 71 mod 4;
#X obj 40 109 select 0 1 2 3;
#X obj 40 168 float;
#X obj 87 168 float;
#X obj 135 168 float;
#X obj 183 168 float;
#X obj 207 32 inlet note sequence;
#X obj 207 67 unpack float float float float;
#X obj 299 166 inlet transpose;
#X obj 40 236 + 24;
#X obj 40 283 outlet notes;
#X connect 0 0 1 0;
#X connect 1 0 2 0;
#X connect 2 0 3 0;
#X connect 2 1 4 0;
#X connect 2 2 5 0;
#X connect 2 3 6 0;
#X connect 3 0 10 0;
#X connect 4 0 10 0;
#X connect 5 0 10 0;
#X connect 6 0 10 0;
#X connect 7 0 8 0;
#X connect 8 0 3 1;
#X connect 8 1 4 1;
#X connect 8 2 5 1;
#X connect 8 3 6 1;
#X connect 9 0 10 1;
#X connect 10 0 11 0;
#X restore 80 542 pd arpeggiator;
#X text 150 399 Melody Line;
#X obj 80 438 receive time;
#X msg 193 468 38 40 52 44;
#X obj 217 506 nbx 5 14 -1e+037 1e+037 0 0 empty empty empty 0 -8 0
10 -203904 -1 -1 50 256;
#X obj 80 585 send synth2;
#X obj 327 437 receive synth2;
#X obj 346 541 hsl 128 15 0 127 0 0 empty empty synth2_volume 8 8 0
10 -203904 -1 -1 3300 1;
#X obj 381 471 hsl 128 15 0 127 0 0 empty empty synth2_delay 8 8 0
10 -203904 -1 -1 12700 1;
#X obj 328 574 *~;
#X obj 328 618 throw~ mix;
#N canvas 965 71 705 611 synth3 0;
#X obj 153 47 inlet note;
#X obj 153 87 trigger float float;
#X obj 153 131 mtof;
#X obj 264 130 / 127;
#X obj 264 166 swap 1;
#X obj 264 203 -;
#X obj 264 239 trigger float float;
#X obj 264 279 * 400;
#X msg 264 317 1 \, 0 \$1;
#X obj 264 358 line~;
#X obj 264 400 *~;
#X obj 77 88 noise~;
#X obj 77 186 bp~ 100 0.5;
#X obj 78 452 *~;
#X obj 77 496 lop~ 3000;
#X obj 76 536 *~ 4;
#X obj 76 575 outlet~;
#X text 50 256 bandbass filter on noise;
#X text 152 496 cutoff frequency;
#X connect 0 0 1 0;
#X connect 1 0 2 0;
#X connect 1 1 3 0;
#X connect 2 0 12 1;
#X connect 3 0 4 0;
#X connect 4 0 5 0;
#X connect 4 1 5 1;
#X connect 5 0 6 0;
#X connect 6 0 7 0;
#X connect 6 1 10 1;
#X connect 7 0 8 0;
#X connect 8 0 9 0;
#X connect 9 0 10 0;
#X connect 10 0 13 1;
#X connect 11 0 12 0;
#X connect 12 0 13 0;
#X connect 13 0 14 0;
#X connect 14 0 15 0;
#X connect 15 0 16 0;
#X restore 291 762 pd synth3;
#N canvas 407 285 647 569 drumsequencer 0;
#X obj 55 47 inlet time;
#X obj 55 87 mod 32;
#X obj 55 129 moses 16;
#X obj 100 165 - 16;
#X obj 55 264 outlet notes;
#N canvas 578 516 450 300 bar2 0;
#X obj 75 73 select 0 1 2 3 4 5 6 7 8 9 10 11 12 13 14 15;
#X msg 207 119 119;
#X msg 240 119 76;
#X msg 173 119 112;
#X msg 140 119 32;
#X obj 191 151 outlet notes;
#X obj 75 46 inlet;
#X connect 0 0 4 0;
#X connect 0 2 3 0;
#X connect 0 3 1 0;
#X connect 0 4 2 0;
#X connect 0 6 1 0;
#X connect 0 9 3 0;
#X connect 0 10 1 0;
#X connect 0 11 1 0;
#X connect 0 12 2 0;
#X connect 0 14 1 0;
#X connect 1 0 5 0;
#X connect 2 0 5 0;
#X connect 3 0 5 0;
#X connect 4 0 5 0;
#X connect 6 0 0 0;
#X restore 110 203 pd bar2;
#N canvas 541 542 450 300 bar1 0;
#X obj 100 66 select 0 1 2 3 4 5 6 7 8 9 10 11 12 13 14 15;
#X msg 167 111 119;
#X msg 200 111 76;
#X msg 133 111 112;
#X msg 100 111 32;
#X obj 151 143 outlet notes;
#X obj 100 39 inlet;
#X connect 0 0 4 0;
#X connect 0 1 1 0;
#X connect 0 2 3 0;
#X connect 0 4 2 0;
#X connect 0 6 1 0;
#X connect 0 9 4 0;
#X connect 0 10 1 0;
#X connect 0 12 2 0;
#X connect 0 14 1 0;
#X connect 1 0 5 0;
#X connect 2 0 5 0;
#X connect 3 0 5 0;
#X connect 4 0 5 0;
#X connect 6 0 0 0;
#X restore 55 203 pd bar1;
#X connect 0 0 1 0;
#X connect 1 0 2 0;
#X connect 2 0 6 0;
#X connect 2 1 3 0;
#X connect 3 0 5 0;
#X connect 5 0 4 0;
#X connect 6 0 4 0;
#X restore 97 765 pd drumsequencer;
#X text 165 697 Drum Line;
#X obj 97 731 receive time;
#X obj 97 803 send synth3;
#X obj 291 731 receive synth3;
#X obj 309 791 hsl 128 15 0 127 0 0 empty empty synth3_volume 8 8 0
10 -203904 -1 -1 12700 1;
#X obj 291 824 *~;
#X obj 290 862 throw~ mix;
#N canvas 848 240 679 478 synth4 0;
#X obj 172 67 inlet chord list;
#X obj 172 107 trigger list bang;
#X obj 172 208 unpack float float float;
#X msg 271 144 1 35 0 \, 0 100 200;
#X obj 271 175 vline~;
#N canvas 1142 417 450 300 vol 0;
#X obj 152 133 mtof;
#X obj 152 184 osc~;
#X obj 152 158 +~;
#X obj 151 209 *~;
#X obj 152 232 *~;
#X obj 152 69 inlet;
#X obj 151 255 outlet~;
#X obj 187 112 osc~ 9;
#X obj 187 133 *~ 1.3;
#X connect 0 0 2 0;
#X connect 1 0 3 0;
#X connect 1 0 3 1;
#X connect 2 0 1 0;
#X connect 3 0 4 0;
#X connect 3 0 4 1;
#X connect 4 0 6 0;
#X connect 5 0 0 0;
#X connect 7 0 8 0;
#X connect 8 0 2 1;
#X restore 313 243 pd vol;
#N canvas 1142 417 450 300 vol 0;
#X obj 152 133 mtof;
#X obj 152 184 osc~;
#X obj 152 158 +~;
#X obj 151 209 *~;
#X obj 152 232 *~;
#X obj 152 69 inlet;
#X obj 151 255 outlet~;
#X obj 187 112 osc~ 9;
#X obj 187 133 *~ 1.3;
#X connect 0 0 2 0;
#X connect 1 0 3 0;
#X connect 1 0 3 1;
#X connect 2 0 1 0;
#X connect 3 0 4 0;
#X connect 3 0 4 1;
#X connect 4 0 6 0;
#X connect 5 0 0 0;
#X connect 7 0 8 0;
#X connect 8 0 2 1;
#X restore 242 256 pd vol;
#N canvas 1142 417 450 300 vol 0;
#X obj 152 133 mtof;
#X obj 152 184 osc~;
#X obj 152 158 +~;
#X obj 151 209 *~;
#X obj 152 232 *~;
#X obj 152 69 inlet;
#X obj 151 255 outlet~;
#X obj 187 112 osc~ 9;
#X obj 187 133 *~ 1.3;
#X connect 0 0 2 0;
#X connect 1 0 3 0;
#X connect 1 0 3 1;
#X connect 2 0 1 0;
#X connect 3 0 4 0;
#X connect 3 0 4 1;
#X connect 4 0 6 0;
#X connect 5 0 0 0;
#X connect 7 0 8 0;
#X connect 8 0 2 1;
#X restore 172 275 pd vol;
#X obj 313 320 *~;
#X obj 314 355 /~ 3;
#X obj 314 396 outlet~;
#X connect 0 0 1 0;
#X connect 1 0 2 0;
#X connect 1 1 3 0;
#X connect 2 0 7 0;
#X connect 2 1 6 0;
#X connect 2 2 5 0;
#X connect 3 0 4 0;
#X connect 4 0 8 1;
#X connect 5 0 8 0;
#X connect 6 0 8 0;
#X connect 7 0 8 0;
#X connect 8 0 9 0;
#X connect 9 0 10 0;
#X restore 782 462 pd synth4;
#N canvas 1008 408 585 348 chordseq 0;
#X obj 162 46 inlet time;
#X obj 162 85 mod 32;
#X obj 162 128 sel 0 14;
#X msg 162 178 52 56 60 64;
#X msg 250 177 54 60 62 66;
#X obj 162 224 outlet chords;
#X connect 0 0 1 0;
#X connect 1 0 2 0;
#X connect 2 0 3 0;
#X connect 2 1 4 0;
#X connect 3 0 5 0;
#X connect 4 0 5 0;
#X restore 657 464 pd chordseq;
#X text 686 385 Chords;
#X obj 657 428 receive time;
#X obj 782 429 receive synth4;
#X obj 800 505 hsl 128 15 0 127 0 0 empty empty synth4_volume 8 8 0
10 -203904 -1 -1 12600 1;
#X obj 782 538 *~;
#X obj 782 582 throw~ mix;
#X obj 588 83 tgl 15 0 empty empty empty 17 7 0 10 -262144 -1 -1 1
1;
#X msg 193 439 loadbang;
#X obj 657 503 send synth4;
#X text 845 27 Mixer;
#X text 588 27 Timer (Start Sequence);
#X connect 0 1 10 0;
#X connect 1 0 6 0;
#X connect 2 0 4 0;
#X connect 3 0 2 0;
#X connect 5 0 1 0;
#X connect 6 0 8 0;
#X connect 7 0 6 1;
#X connect 9 0 44 0;
#X connect 11 0 13 0;
#X connect 13 0 12 0;
#X connect 13 0 12 1;
#X connect 15 0 25 0;
#X connect 16 0 21 0;
#X connect 18 0 16 0;
#X connect 19 0 16 1;
#X connect 20 0 16 2;
#X connect 22 0 15 0;
#X connect 23 0 25 1;
#X connect 24 0 15 1;
#X connect 25 0 26 0;
#X connect 27 0 34 0;
#X connect 28 0 31 0;
#X connect 30 0 28 0;
#X connect 32 0 27 0;
#X connect 33 0 34 1;
#X connect 34 0 35 0;
#X connect 36 0 42 0;
#X connect 37 0 46 0;
#X connect 39 0 37 0;
#X connect 40 0 36 0;
#X connect 41 0 42 1;
#X connect 42 0 43 0;
#X connect 44 0 0 0;
#X connect 45 0 19 0;
