#N canvas 960 0 944 994 10;
#X obj 63 35 bng 15 250 50 0 empty empty empty 17 7 0 10 -262144 -1
-1;
#X obj 135 75 hsl 128 15 0 127 0 0 empty empty speed -2 -8 0 10 -262144
-1 -1 4700 1;
#X obj 63 111 metro 200;
#X obj 62 142 trigger bang bang;
#X obj 62 177 random 100;
#X obj 61 212 / 100;
#X obj 60 247 swap 1;
#X obj 60 284 -;
#N canvas 428 147 450 314 sinewave 0;
#X obj 78 53 inlet amp;
#X obj 179 31 inlet midinote;
#X obj 176 81 mtof;
#X obj 176 107 osc~;
#X obj 127 158 *~;
#X obj 128 206 *~ 0.3;
#X obj 127 246 outlet~;
#X connect 0 0 4 0;
#X connect 1 0 2 0;
#X connect 2 0 3 0;
#X connect 3 0 4 1;
#X connect 4 0 5 0;
#X connect 5 0 6 0;
#X restore 15 324 pd sinewave amp midinote;
#N canvas 1229 291 450 300 sinewave 0;
#X obj 88 63 inlet amp;
#X obj 189 41 inlet midinote;
#X obj 186 91 mtof;
#X obj 186 117 osc~;
#X obj 137 168 *~;
#X obj 138 216 *~ 0.3;
#X obj 137 256 outlet~;
#X connect 0 0 4 0;
#X connect 1 0 2 0;
#X connect 2 0 3 0;
#X connect 3 0 4 1;
#X connect 4 0 5 0;
#X connect 5 0 6 0;
#X restore 130 361 pd sinewave amp midinote;
#X obj 64 416 dac~;
#X obj 161 175 random 6;
#X obj 160 204 * 5;
#X obj 159 239 + 48;
#X obj 207 279 + 5;
#X text 38 13 Sine Wave Generators via sub-patch.;
#X connect 0 0 2 0;
#X connect 1 0 2 1;
#X connect 2 0 3 0;
#X connect 3 0 4 0;
#X connect 3 1 11 0;
#X connect 4 0 5 0;
#X connect 5 0 6 0;
#X connect 5 0 8 0;
#X connect 6 0 7 0;
#X connect 6 1 7 1;
#X connect 7 0 9 0;
#X connect 8 0 10 0;
#X connect 9 0 10 1;
#X connect 11 0 12 0;
#X connect 12 0 13 0;
#X connect 13 0 8 1;
#X connect 13 0 14 0;
#X connect 14 0 9 1;
